<svg width="483" height="31" viewBox="0 0 483 31" fill="none" xmlns="http://www.w3.org/2000/svg">
<path d="M454.195 16.0157C453.534 16.0414 452.866 16.0595 452.218 16.0974C451.798 16.1212 451.617 16.054 451.336 16.0191C451.242 16.007 451.141 15.9826 451.055 15.9858C450.4 16.0115 449.746 16.0403 449.091 16.0691C448.892 16.1293 448.766 16.2095 448.459 16.2392C448.159 16.2674 447.805 16.268 447.471 16.2824C447.03 16.3 446.589 16.3177 446.149 16.3338C445.928 16.3419 445.748 16.3714 445.675 16.4268C445.662 16.4361 445.809 16.4589 445.89 16.4726C446.157 16.5182 446.419 16.57 446.713 16.6048C446.994 16.6381 447.341 16.5822 447.642 16.6247C448.318 16.7203 448.325 16.7187 448.839 16.6994C449.279 16.6818 449.72 16.6626 450.161 16.6495C450.248 16.6463 450.348 16.6691 450.442 16.6813C450.723 16.7146 450.904 16.7911 451.318 16.7612C451.632 16.7376 451.979 16.7324 452.306 16.7195C452.581 16.7636 452.835 16.8138 453.129 16.8487C453.404 16.882 453.484 16.908 453.338 16.9528C453.205 16.9945 453.018 17.0117 452.771 17.0152C452.55 17.0172 452.33 17.0313 452.11 17.0394C451.996 17.0442 451.889 17.0475 451.782 17.0523C451.362 17.0699 451.362 17.0699 450.592 16.9729C450.291 16.935 449.951 16.9894 449.664 16.953C449.469 16.9288 449.302 16.8922 449.115 16.8664C449.034 16.8558 448.907 16.8545 448.807 16.8577C448.473 16.8691 448.139 16.8773 447.819 16.8978C447.592 16.9121 447.459 16.9553 447.486 16.9983C447.493 17.0152 447.654 17.0395 447.747 17.0409C447.961 17.0436 448.188 17.0216 448.395 17.032C448.596 17.0424 448.803 17.0728 448.95 17.1064C449.252 17.1765 449.592 17.1129 449.879 17.1309C450.18 17.1503 450.428 17.2113 450.716 17.2477C450.789 17.2568 450.93 17.2412 451.043 17.2364C451.37 17.2251 451.698 17.2153 452.025 17.204C452.299 17.248 452.594 17.2875 452.842 17.3377C453.29 17.4291 453.772 17.4636 454.352 17.4181C454.679 17.3929 455 17.4016 455.261 17.461C455.529 17.522 455.837 17.5154 456.177 17.5025C456.491 17.4896 456.811 17.4553 457.132 17.4977C457.828 17.5918 457.835 17.5964 458.656 17.5581C458.903 17.5469 459.09 17.5435 459.278 17.5785C459.452 17.6105 459.639 17.6378 459.82 17.6682C460.147 17.6569 460.481 17.6456 460.808 17.6327C461.229 17.6151 461.463 17.6362 461.564 17.722C461.625 17.7742 461.653 17.8217 461.8 17.8568C461.974 17.8995 462.161 17.8977 462.415 17.8849C462.655 17.8738 462.829 17.8566 462.928 17.8011C462.968 17.778 463.048 17.7563 463.121 17.7378C463.181 17.7238 463.274 17.7022 463.328 17.7051C463.428 17.7111 463.562 17.7278 463.596 17.7477C463.925 17.933 463.925 17.9346 464.26 17.9877C464.628 18.047 465.01 18.1001 465.344 18.1671C465.646 18.2265 465.946 18.1999 466.273 18.1993C466.521 18.1989 466.681 18.2386 466.662 18.2786C466.649 18.3016 466.556 18.3356 466.476 18.3388C465.821 18.3706 465.16 18.3979 464.499 18.4206C464.419 18.4238 464.319 18.3963 464.225 18.3826C464.037 18.3553 463.87 18.3126 463.669 18.3037C463.469 18.2948 463.235 18.3183 463.015 18.3264C462.795 18.3344 462.561 18.3548 462.36 18.3429C462.16 18.3309 461.999 18.2866 461.811 18.2578C461.724 18.2441 461.604 18.2243 461.531 18.2291C461.043 18.2668 460.682 18.2167 460.334 18.1497C460.26 18.136 460.133 18.127 460.04 18.1303C459.265 18.1577 458.497 18.1898 457.723 18.2203C457.409 18.2332 457.154 18.1798 457.086 18.0893C457.052 18.0387 456.985 17.9881 456.984 17.9374C456.983 17.8452 456.615 17.7951 456.348 17.8064C455.907 17.8225 455.46 17.8356 455.026 17.8594C454.672 17.8784 454.371 17.8605 454.13 17.8056C453.848 17.7431 453.528 17.756 453.208 17.7734C452.967 17.7861 452.901 17.8369 452.916 17.9644C452.93 18.0673 452.817 18.0998 452.383 18.1174C451.836 18.1399 451.281 18.1624 450.727 18.1802C450.64 18.1835 450.54 18.1575 450.453 18.1438C450.266 18.1165 450.098 18.0722 449.897 18.0634C449.697 18.053 449.463 18.0764 449.243 18.086C449.023 18.0941 448.789 18.116 448.588 18.1056C448.388 18.0952 448.22 18.0494 448.04 18.0205C447.953 18.0068 447.845 17.9871 447.759 17.9903C447.318 18.0033 446.877 18.0225 446.437 18.0402C445.942 18.0595 445.942 18.0595 445.24 17.9655C444.919 17.923 444.598 17.9574 444.284 17.9702C443.951 17.9831 443.637 17.9898 443.375 17.9288C443.201 17.8891 443.007 17.8649 442.8 17.8729C442.246 17.8923 441.698 17.9163 441.144 17.9357C441.051 17.9389 440.924 17.9315 440.85 17.9178C440.495 17.8539 440.147 17.8038 439.653 17.8369C439.226 17.8653 438.765 17.8676 438.338 17.8945C438.104 17.9087 437.998 17.9581 438.045 17.9964C438.072 18.0163 438.213 18.0391 438.306 18.039C438.52 18.0401 438.753 18.0167 438.954 18.0255C439.368 18.0433 439.577 18.1719 440.118 18.1357C440.438 18.1136 440.772 18.1053 441.106 18.0986C441.193 18.0969 441.287 18.126 441.38 18.1412C441.648 18.1822 441.883 18.2355 442.27 18.2072C442.59 18.1851 442.931 18.1784 443.258 18.1656C443.779 18.1447 443.779 18.1462 444.455 18.2388C444.776 18.2828 445.096 18.2469 445.41 18.2356C445.644 18.2275 445.864 18.2117 446.051 18.2329C446.339 18.2647 446.547 18.338 446.901 18.3328C447.235 18.3276 447.562 18.3056 447.896 18.2973C448.103 18.2923 448.297 18.3166 448.465 18.3578C448.639 18.399 448.826 18.4171 449.053 18.4074C449.38 18.3946 449.714 18.3786 450.048 18.3704C450.142 18.3687 450.249 18.3823 450.336 18.3945C450.523 18.4218 450.704 18.4537 450.885 18.4826C451.212 18.4728 451.546 18.4692 451.866 18.4502C452.113 18.4359 452.287 18.4418 452.488 18.4722C452.742 18.5132 452.95 18.5866 453.364 18.5505C453.571 18.5333 453.811 18.5375 454.018 18.5217C454.272 18.5013 454.446 18.5087 454.627 18.5545C454.968 18.6414 455.396 18.6422 455.837 18.6077C456.317 18.57 456.678 18.6124 457.04 18.6793C457.422 18.7494 457.422 18.7478 457.718 18.9178C457.805 18.9668 458.052 18.9895 458.259 18.9799C458.607 18.9639 458.907 18.9711 459.162 19.029C459.43 19.0915 459.75 19.0833 460.078 19.0658C460.512 19.042 460.946 19.0213 461.301 19.1098C461.475 19.1525 461.662 19.1629 461.896 19.1518C462.557 19.123 463.225 19.1049 463.872 19.07C464.266 19.0478 464.494 19.0966 464.762 19.1376C465.123 19.1938 465.518 19.2438 465.519 19.3652C465.52 19.3851 465.613 19.408 465.694 19.4233C465.868 19.4552 466.055 19.4825 466.236 19.513C466.504 19.5586 466.765 19.5965 467.132 19.5713C467.452 19.5508 467.793 19.544 468.12 19.5297C468.447 19.5153 468.748 19.5071 469.043 19.5649C469.384 19.6304 469.746 19.6928 470.134 19.7412C470.408 19.7761 470.768 19.7156 471.063 19.7627C471.243 19.7916 471.417 19.825 471.611 19.8493C471.692 19.8599 471.819 19.852 471.925 19.8487C472.146 19.8422 472.373 19.8372 472.587 19.8215C472.834 19.8042 473.021 19.8069 473.208 19.8419C473.382 19.8739 473.556 19.9181 473.757 19.927C474.058 19.9403 474.391 19.8783 474.692 19.9484C474.847 19.9835 475.041 20.017 475.241 20.0274C475.442 20.0378 475.675 20.0143 475.889 20.0155C475.983 20.0153 476.096 20.0397 476.15 20.0596C476.184 20.0703 476.137 20.0995 476.091 20.115C476.031 20.1335 475.944 20.1583 475.857 20.1615C475.196 20.1903 474.535 20.2145 473.874 20.2417C473.48 20.2578 473.48 20.2578 472.684 20.1624C472.497 20.1397 472.29 20.1446 472.056 20.1558C471.742 20.1702 471.422 20.1968 471.094 20.1698C470.665 20.066 470.138 20.0577 469.577 20.0986C469.343 20.1159 469.129 20.1163 468.955 20.0874C468.587 20.0297 468.199 19.9766 467.871 19.908C467.616 19.8547 467.496 19.8503 467.39 19.9242C467.357 19.9473 467.324 19.972 467.331 19.9935C467.372 20.0702 467.446 20.1454 467.487 20.2221C467.501 20.2436 467.448 20.2683 467.415 20.2914C467.309 20.3561 467.168 20.3517 466.934 20.2983C466.699 20.245 466.418 20.2101 466.044 20.2354C465.724 20.2574 465.377 20.255 465.056 20.2786C464.562 20.3132 464.214 20.2647 463.859 20.1992C463.786 20.1855 463.659 20.1781 463.565 20.1813C462.57 20.2184 461.582 20.26 460.587 20.2971C460.373 20.3051 460.179 20.2824 460.012 20.2412C459.838 20.2001 459.644 20.1789 459.43 20.1869C458.548 20.2207 457.667 20.2515 456.786 20.2929C456.425 20.3105 456.138 20.291 455.89 20.2376C455.702 20.198 455.528 20.186 455.295 20.191C455.041 20.1961 454.861 20.2118 454.734 20.2566C454.615 20.2998 454.702 20.3257 454.969 20.3591C455.257 20.3954 455.525 20.4426 455.799 20.4852C456.02 20.4786 456.24 20.4659 456.454 20.4671C456.547 20.4669 456.634 20.4944 456.728 20.5096C456.996 20.5537 457.244 20.5979 457.624 20.5726C457.945 20.5506 458.285 20.5454 458.612 20.531C459.066 20.5133 459.066 20.5133 459.802 20.6088C459.99 20.633 460.19 20.6311 460.431 20.6169C460.637 20.6058 460.852 20.6269 460.999 20.6728C461.059 20.6911 461.04 20.7219 460.914 20.8235C460.915 20.8988 461.055 20.8647 461.101 20.8155C461.174 20.7447 461.033 20.7219 460.766 20.7607C460.58 20.7887 460.487 20.8288 460.534 20.861C460.561 20.8779 460.688 20.8992 460.914 20.8235C461.501 20.7303 461.948 20.7187 462.376 20.6934C462.629 20.6791 462.79 20.685 462.991 20.7246C463.232 20.7718 463.473 20.8221 463.867 20.7968C464.294 20.7684 464.748 20.7646 465.182 20.7408C465.583 20.7186 465.791 20.7858 466.045 20.8253C466.353 20.8724 466.693 20.818 466.974 20.8452C467.268 20.8724 467.476 20.9396 467.817 20.9513C468.311 20.9089 468.626 20.9852 469 21.0353C469.295 21.0732 469.642 21.0388 469.955 21.0213C470.309 21.0023 470.603 21.0187 470.851 21.0735C471.133 21.136 471.447 21.1217 471.767 21.1073C472.515 21.0753 472.541 21.0706 472.977 21.1543C473.291 21.2152 473.592 21.1871 473.906 21.1789C474.18 21.2199 474.448 21.2639 474.736 21.3003C474.809 21.3094 474.949 21.2938 475.063 21.289C475.39 21.2761 475.724 21.2633 476.051 21.2504C476.271 21.2423 476.505 21.2189 476.706 21.2278C476.906 21.2382 477.074 21.2824 477.254 21.3113C477.435 21.3402 477.623 21.369 477.797 21.3995C478.064 21.4451 478.319 21.4831 478.692 21.4594C479.013 21.4388 479.347 21.4321 479.681 21.4177C480.101 21.4001 480.088 21.4047 480.871 21.4955C481.292 21.5455 481.726 21.4833 482.153 21.4764C482.367 21.473 482.574 21.4895 482.722 21.5338C482.782 21.5521 482.763 21.5829 482.783 21.609C481.681 21.6524 480.573 21.6896 479.484 21.7422C479.064 21.7629 478.843 21.708 478.615 21.6623C478.24 21.5892 477.747 21.6976 477.392 21.603C477.177 21.5465 476.869 21.5148 476.502 21.5431C476.289 21.5588 476.061 21.5576 475.841 21.5719C475.28 21.6066 474.766 21.6091 474.317 21.5038C474.163 21.4672 473.942 21.4476 473.782 21.4126C473.594 21.3745 473.413 21.3533 473.193 21.3614C472.198 21.4 471.21 21.4386 470.222 21.4802C470.135 21.4834 470.048 21.5066 469.975 21.5237C469.788 21.567 469.849 21.6007 470.15 21.6278C470.25 21.6369 470.331 21.6567 470.424 21.6719C470.605 21.7008 470.773 21.7466 470.973 21.757C471.174 21.7674 471.407 21.7455 471.628 21.7374C471.848 21.7294 472.082 21.7059 472.282 21.7148C472.483 21.7252 472.65 21.7694 472.838 21.7968C472.925 21.8105 473.032 21.8333 473.119 21.8316C473.56 21.8216 473.994 21.804 474.434 21.7894C474.709 21.8304 474.943 21.8899 475.271 21.9032C475.478 21.912 475.698 21.8947 475.912 21.8974C476.006 21.8988 476.126 21.9216 476.173 21.9415C476.2 21.9538 476.113 21.9847 476.047 22.0001C475.794 22.059 475.446 22.0488 475.133 22.0678C474.792 22.0883 474.485 22.0827 474.223 22.0233C474.049 21.9836 473.855 21.9625 473.641 21.9705C473.087 21.9915 472.54 22.0155 471.985 22.0333C471.892 22.0366 471.778 22.0229 471.691 22.0123C470.989 21.9198 470.989 21.9168 470.494 21.9376C469.767 21.968 469.767 21.968 469.278 21.8874C469.184 21.8722 469.084 21.8432 469.003 21.8449C468.229 21.8708 467.461 21.8968 466.693 21.9334C466.439 21.9446 466.266 21.9449 466.078 21.9053C465.917 21.8718 465.73 21.8337 465.529 21.8248C465.322 21.816 465.095 21.8394 464.875 21.8475C464.655 21.8555 464.421 21.8759 464.227 21.864C464.027 21.852 463.852 21.8093 463.678 21.7789C463.497 21.7469 463.304 21.7488 463.057 21.7615C462.296 21.7982 462.289 21.7936 461.533 21.6996C461.446 21.689 461.332 21.6769 461.239 21.6802C460.684 21.6996 460.137 21.7236 459.583 21.743C459.369 21.751 459.161 21.7314 459.014 21.6871C458.954 21.6688 458.973 21.638 458.933 21.5782C458.886 21.5644 458.939 21.5889 458.953 21.612C459.053 21.6087 459.173 21.6116 459.247 21.5991C459.433 21.5696 459.526 21.5311 459.479 21.4989C459.452 21.482 459.325 21.4607 459.245 21.4609C459.098 21.4611 458.972 21.4951 458.933 21.5782C458.512 21.6296 458.065 21.6411 457.631 21.6665C457.377 21.6823 457.217 21.6749 457.016 21.6353C456.775 21.5865 456.527 21.5393 456.133 21.5646C455.706 21.593 455.252 21.5984 454.811 21.6207C454.304 21.6461 454.081 21.5082 453.654 21.5121C453.213 21.5159 452.772 21.5428 452.332 21.562C451.944 21.578 451.944 21.578 451.141 21.4796C450.847 21.4432 450.5 21.4976 450.213 21.4597C450.019 21.4354 449.851 21.3988 449.664 21.373C449.584 21.3624 449.457 21.3626 449.356 21.3659C448.802 21.3853 448.241 21.3986 447.707 21.4333C447.1 21.4743 446.638 21.4321 446.203 21.3422C445.655 21.36 445.101 21.3702 444.56 21.4003C444.166 21.4225 443.938 21.3722 443.671 21.3312C443.577 21.3176 443.497 21.2947 443.396 21.2887C443.296 21.2827 443.176 21.2952 443.069 21.3C442.628 21.3177 442.174 21.3261 441.747 21.3545C441.22 21.3908 441.018 21.2652 440.61 21.2505C440.337 21.3263 440.191 21.4294 439.65 21.4381C439.209 21.445 438.769 21.4703 438.328 21.488C438.108 21.496 437.887 21.5057 437.667 21.5137C437.313 21.5282 437.147 21.5884 437.221 21.6804C437.262 21.731 437.296 21.7817 437.33 21.8323C437.398 21.9228 437.232 22 436.951 22.0112C436.177 22.0417 435.409 22.0738 434.634 22.1012C434.427 22.1093 434.227 22.0835 434.059 22.0423C433.885 22.0011 433.691 21.9831 433.477 21.9911C432.703 22.0216 431.935 22.0537 431.16 22.0812C431.073 22.0844 430.96 22.0692 430.873 22.0571C430.685 22.0298 430.504 21.9978 430.324 21.9689C429.883 21.9835 429.449 21.9935 429.015 22.0127C428.314 22.0415 428.314 22.0431 427.798 21.9595C427.705 21.9443 427.611 21.9153 427.524 21.917C427.19 21.9237 426.863 21.9396 426.529 21.954C425.547 21.9957 425.547 21.9957 425.259 21.9501C424.998 21.9075 424.764 21.8557 424.37 21.8809C423.943 21.9093 423.489 21.9193 423.048 21.9355C422.721 21.9468 422.394 21.9597 422.066 21.9633C421.979 21.965 421.886 21.936 421.792 21.9208C421.524 21.8736 421.263 21.8356 420.896 21.8624C420.682 21.8781 420.455 21.8816 420.235 21.8897C419.661 21.9122 419.661 21.9122 418.718 21.8216C418.624 21.8126 418.51 21.802 418.417 21.8068C417.642 21.8358 416.874 21.8678 416.1 21.8953C416.006 21.8985 415.892 21.8895 415.799 21.882C414.742 21.7947 414.742 21.7947 413.62 21.8397C413.193 21.8558 413.18 21.862 412.731 21.7813C412.53 21.7463 412.363 21.7297 412.129 21.7409C411.248 21.7793 410.36 21.8054 409.485 21.85C409.091 21.8691 408.864 21.8234 408.596 21.7824C408.502 21.7687 408.402 21.7382 408.321 21.7398C407.44 21.7705 406.558 21.8074 405.677 21.8381C405.597 21.8413 405.496 21.8108 405.403 21.7971C405.222 21.7698 405.048 21.7286 404.847 21.7197C404.64 21.7109 404.413 21.7343 404.186 21.7424C403.632 21.7633 403.632 21.7618 402.989 21.6723C402.902 21.6601 402.789 21.6434 402.702 21.6466C401.82 21.6789 400.932 21.7066 400.058 21.7526C399.557 21.7781 399.215 21.7341 398.861 21.6702C398.787 21.6565 398.66 21.6506 398.567 21.6538C397.572 21.6909 396.583 21.7325 395.588 21.7696C395.381 21.7777 395.181 21.7519 395.013 21.7122C394.745 21.6497 394.431 21.6579 394.097 21.6723C393.33 21.7059 393.323 21.7044 392.868 21.6315C392.774 21.6163 392.694 21.5964 392.593 21.5889C392.5 21.5814 392.379 21.5862 392.279 21.5895C391.839 21.6056 391.398 21.6233 390.957 21.6409C390.516 21.6586 390.069 21.6686 389.635 21.6955C389.101 21.7287 388.846 21.6292 388.471 21.5838C387.923 21.6047 387.362 21.618 386.822 21.6512C386.408 21.6765 386.213 21.6092 385.939 21.5744C385.845 21.5622 385.745 21.5363 385.658 21.5395C384.663 21.575 383.668 21.6136 382.68 21.6568C382.439 21.6665 382.279 21.6545 382.078 21.6179C381.63 21.5357 381.609 21.5389 380.862 21.5709C380.534 21.5853 380.221 21.5981 379.939 21.5356C379.691 21.4792 379.391 21.4659 379.037 21.4849C378.603 21.5087 378.155 21.5218 377.715 21.5379C377.274 21.5556 376.833 21.5794 376.392 21.5879C376.039 21.5962 375.824 21.5243 375.543 21.488C375.456 21.4773 375.336 21.476 375.235 21.4793C374.795 21.4938 374.341 21.5054 373.913 21.5322C373.393 21.5654 373.104 21.4814 372.736 21.4329C372.656 21.4223 372.522 21.4287 372.422 21.4335C371.648 21.4624 370.88 21.4945 370.105 21.525C369.831 21.484 369.55 21.4446 369.275 21.4036C368.834 21.4197 368.394 21.4374 367.953 21.4535C367.619 21.4664 367.279 21.4716 366.965 21.4952C366.558 21.5266 366.356 21.4547 366.082 21.4199C365.988 21.4077 365.888 21.3818 365.801 21.385C365.247 21.4029 364.692 21.4223 364.145 21.4494C363.624 21.4764 363.415 21.3385 362.988 21.3407C362.547 21.343 362.093 21.3638 361.666 21.3922C361.172 21.4253 360.824 21.3768 360.469 21.3113C360.395 21.2976 360.268 21.2902 360.175 21.2934C359.621 21.3128 359.073 21.3368 358.519 21.3562C358.425 21.3594 358.312 21.3519 358.218 21.3429C357.161 21.2541 357.161 21.2526 356.701 21.2718C356.373 21.2846 356.04 21.3006 355.706 21.3088C355.612 21.3121 355.498 21.2985 355.411 21.2863C354.715 21.1938 354.715 21.1923 354.215 21.2116C353.774 21.2292 353.333 21.2469 352.892 21.2646C352.618 21.2236 352.337 21.1841 352.063 21.1431C351.515 21.164 350.954 21.1804 350.413 21.2089C350.159 21.2217 349.992 21.2174 349.798 21.1793C349.557 21.1336 349.316 21.0803 348.915 21.1071C348.488 21.1355 348.034 21.1393 347.6 21.1631C347.079 21.1917 346.864 21.0523 346.443 21.0545C346.002 21.0568 345.548 21.0776 345.121 21.106C344.627 21.1391 344.279 21.0906 343.924 21.0251C343.85 21.0114 343.723 21.004 343.63 21.0072C342.415 21.0539 341.206 21.1005 339.991 21.1502C339.243 21.1807 339.243 21.1823 337.819 21.1002C337.719 21.0943 337.611 21.0883 337.511 21.0916C337.071 21.1062 336.616 21.1177 336.189 21.1445C335.668 21.1777 335.38 21.0953 335.012 21.0452C334.932 21.0346 334.805 21.0409 334.698 21.0442C334.364 21.0555 334.037 21.0699 333.703 21.0828C333.263 21.1005 332.822 21.1181 332.381 21.1358C332.107 21.0963 331.826 21.0553 331.551 21.0159C331.004 21.0368 330.443 21.0485 329.902 21.0817C329.488 21.107 329.293 21.0428 329.019 21.0064C328.925 20.9943 328.825 20.9684 328.738 20.9701C327.743 21.0056 326.748 21.0427 325.76 21.0874C325.353 21.1065 325.165 21.0377 324.89 21.0028C324.797 20.9923 324.69 20.9725 324.603 20.9757C323.942 20.9984 323.281 21.0256 322.62 21.0529C322.246 21.0689 322.246 21.0689 321.43 20.9751C321.336 20.9645 321.229 20.9539 321.135 20.9571C319.039 21.0376 316.949 21.1227 314.852 21.2031C314.638 21.2112 314.444 21.1885 314.277 21.1473C314.102 21.1061 313.908 21.0849 313.695 21.093C312.813 21.1268 311.925 21.1575 311.05 21.199C310.69 21.2165 310.402 21.197 310.154 21.1437C309.967 21.104 309.793 21.089 309.559 21.0986C309.119 21.1178 308.678 21.1339 308.237 21.1516C307.797 21.1693 307.356 21.187 306.915 21.2046C306.474 21.2223 306.027 21.2323 305.593 21.2591C305.059 21.2923 304.797 21.1975 304.429 21.1506C303.768 21.1747 303.107 21.1989 302.453 21.2247C301.571 21.2584 300.69 21.2953 299.808 21.3276C299.728 21.3308 299.628 21.3033 299.534 21.2896C299.26 21.2517 299.058 21.1983 298.651 21.2159C296.675 21.3008 294.685 21.3733 292.702 21.4567C292.288 21.4743 292.106 21.4085 291.825 21.3737C291.732 21.3631 291.625 21.3418 291.538 21.345C290.436 21.3853 289.334 21.4303 288.233 21.4736C287.785 21.4913 287.785 21.4913 287.036 21.3974C286.949 21.3868 286.835 21.3731 286.741 21.3764C285.306 21.4311 283.877 21.4889 282.441 21.5452C282.227 21.5532 282.033 21.532 281.859 21.4909C281.692 21.4497 281.491 21.427 281.284 21.435C279.962 21.4865 278.633 21.5364 277.318 21.5925C276.964 21.6084 276.67 21.5951 276.415 21.5403C276.234 21.5006 276.054 21.484 275.827 21.4937C273.843 21.5724 271.86 21.648 269.877 21.7314C269.496 21.7474 269.229 21.7187 268.988 21.6684C268.794 21.6288 268.626 21.6214 268.386 21.628C268.132 21.6361 267.979 21.6532 267.839 21.6996C267.659 21.7598 267.547 21.8353 267.119 21.8406C266.678 21.846 266.231 21.8652 265.797 21.8921C265.383 21.9189 265.189 21.8501 264.928 21.8091C264.733 21.7802 264.553 21.776 264.306 21.7902C264.079 21.8029 263.939 21.8292 263.806 21.8786C263.513 21.9836 263.487 21.9837 263.125 21.9182C262.931 21.8832 262.757 21.8559 262.543 21.8624C261.662 21.8947 260.78 21.93 259.899 21.9669C259.391 21.9877 259.385 21.9908 259.003 21.9146C258.816 21.8766 258.635 21.8584 258.415 21.868C255.991 21.9644 253.567 22.0577 251.143 22.1587C250.769 22.1748 250.515 22.1429 250.247 22.0973C250.16 22.0821 250.073 22.0607 249.972 22.0548C249.872 22.0488 249.759 22.0551 249.652 22.0584C247.889 22.1275 246.119 22.1936 244.363 22.2704C243.963 22.288 243.748 22.2392 243.474 22.1997C243.38 22.1861 243.3 22.1647 243.199 22.1587C243.099 22.1543 242.979 22.1652 242.872 22.17C241.109 22.2392 239.34 22.3052 237.584 22.382C237.163 22.3997 236.982 22.3354 236.708 22.3021C236.614 22.29 236.513 22.2671 236.427 22.2703C235.872 22.2882 235.325 22.3122 234.771 22.3331C233.448 22.3861 232.126 22.4361 230.804 22.4906C230.297 22.5114 230.074 22.3751 229.647 22.382C229.093 22.3906 228.545 22.4223 227.991 22.4448C227.55 22.4624 227.109 22.4786 226.669 22.4978C226.235 22.5154 226.235 22.5154 225.151 22.4282C225.058 22.4207 224.944 22.4101 224.851 22.4133C223.308 22.4729 221.759 22.5324 220.223 22.5965C219.869 22.611 219.575 22.6038 219.321 22.5474C219.14 22.5078 218.953 22.4881 218.732 22.4977C216.415 22.5893 214.105 22.6809 211.787 22.771C211.701 22.7742 211.587 22.759 211.5 22.7469C211.313 22.7195 211.132 22.6876 210.951 22.6587C210.818 22.6943 210.645 22.7268 210.558 22.7669C210.439 22.8209 210.279 22.8366 210.025 22.8462C209.771 22.8559 209.611 22.8531 209.41 22.8135C209.169 22.7648 208.921 22.7268 208.527 22.7428C206.103 22.8438 203.679 22.9356 201.255 23.0351C200.855 23.0511 200.667 22.9838 200.386 22.949C200.292 22.9384 200.185 22.9217 200.098 22.9249C199.103 22.962 198.115 23.0021 197.12 23.0407C194.362 23.15 191.604 23.2546 188.853 23.37C188.353 23.3909 188.011 23.353 187.656 23.2876C187.583 23.2739 187.456 23.2664 187.362 23.2697C183.503 23.4208 179.643 23.5734 175.79 23.7261C175.583 23.7341 175.382 23.7099 175.215 23.6702C175.041 23.629 174.847 23.6094 174.633 23.6175C172.87 23.6866 171.107 23.7557 169.345 23.8264C168.904 23.8441 168.897 23.8456 168.442 23.7726C168.348 23.7574 168.248 23.7284 168.174 23.7316C168.021 23.7396 167.874 23.7782 167.768 23.8306C167.662 23.8861 167.495 23.9018 167.248 23.913C166.994 23.9242 166.827 23.9199 166.633 23.8833C166.385 23.8377 166.157 23.7935 165.757 23.8096C160.689 24.015 155.62 24.2128 150.552 24.4167C150.145 24.4328 149.957 24.3686 149.676 24.3337C149.582 24.3231 149.489 24.3079 149.388 24.305C149.281 24.3021 149.168 24.3116 149.061 24.3164C140.794 24.6426 132.528 24.9704 124.261 25.2966C123.767 25.3159 123.774 25.3159 123.234 25.4582C123.168 25.4752 123.081 25.4984 122.987 25.5016C120.457 25.6043 117.919 25.704 115.382 25.8036C114.28 25.847 113.178 25.892 112.077 25.9338C111.683 25.9483 111.683 25.9483 110.743 26.1159C110.663 26.1299 110.569 26.1485 110.476 26.1517C106.069 26.3268 101.661 26.5019 97.2475 26.674C96.9003 26.6869 96.6201 26.715 96.4607 26.789C96.3477 26.8415 96.2011 26.8724 95.9808 26.882C92.8958 27.0042 89.8109 27.1278 86.7192 27.2469C86.3519 27.2613 86.1319 27.3047 85.9523 27.3696C85.8924 27.3912 85.8392 27.4158 85.7526 27.4314C85.6726 27.4453 85.5524 27.4501 85.4523 27.4549C82.808 27.5594 80.1638 27.6669 77.5128 27.7668C77.1188 27.7813 76.9591 27.8384 76.7661 27.8987C76.6995 27.9187 76.6531 27.9465 76.5664 27.9605C76.4797 27.9729 76.3528 27.9731 76.2459 27.9764C74.0423 28.0632 71.8388 28.1515 69.6353 28.2383C69.2076 28.2313 69.1151 28.3206 68.9087 28.3747C68.8354 28.3933 68.7824 28.418 68.6957 28.4304C68.6023 28.4429 68.4819 28.4415 68.3683 28.4448C66.6055 28.5139 64.8427 28.5877 63.0731 28.6522C62.6658 28.6667 62.5865 28.7452 62.3667 28.7994C62.2934 28.8164 62.2204 28.8426 62.1336 28.8474C61.0318 28.8939 59.9301 28.9373 58.8283 28.9791C58.461 28.9936 58.461 28.9921 57.8148 29.1453C57.7415 29.1623 57.6548 29.1809 57.5613 29.1857C55.912 29.2531 54.256 29.3174 52.6 29.3832C52.3863 29.3913 52.2399 29.4284 52.1336 29.4808C52.0273 29.5333 51.8741 29.5673 51.6604 29.5754C50.3383 29.6284 49.0161 29.6829 47.6939 29.7313C47.3266 29.7442 47.0866 29.783 46.9271 29.8525C46.8075 29.9049 46.6609 29.9313 46.4272 29.9409C45.105 29.9923 43.7829 30.0484 42.454 30.0938C42.0667 30.1067 41.8668 30.1593 41.7073 30.2241C41.581 30.2765 41.4342 30.2952 41.1872 30.3049C38.7632 30.3982 36.3326 30.4915 33.9155 30.594C33.5082 30.6117 33.3004 30.5582 33.0327 30.5203C32.6512 30.4672 32.2965 30.4094 32.2951 30.2896C32.2949 30.2712 32.181 30.2499 32.1007 30.2346C31.5047 30.1204 31.5047 30.1204 31.4096 29.9977C31.3553 29.9225 31.2942 29.8458 31.2465 29.7691C31.1581 29.6433 30.9439 29.6114 30.3296 29.6355C30.1092 29.6435 29.8889 29.6547 29.6685 29.6612C29.3413 29.6725 29.0935 29.6222 29.0323 29.5302C28.9982 29.4795 28.9576 29.4289 28.9236 29.3783C29.2575 29.3654 29.2507 29.3639 29.8363 29.177C30.0825 29.0982 30.0826 29.0982 29.6074 29.0207C29.4266 28.9918 29.2525 28.9598 29.0584 28.9325C28.9714 28.9204 28.8578 28.9129 28.7643 28.9161C28.21 28.9355 27.6625 28.958 27.115 28.9804C26.2336 29.0158 26.2335 29.0157 25.3363 28.8606C25.2627 28.8484 25.1489 28.8256 25.1621 28.8133C25.2349 28.7563 25.4149 28.7314 25.642 28.7249C25.9759 28.7151 26.303 28.6991 26.6302 28.6863C26.8506 28.6782 27.0709 28.6686 27.2913 28.6606C27.4977 28.6018 27.7109 28.5446 27.9039 28.4844C28.2101 28.3917 28.2099 28.3886 27.7883 28.3248C27.5205 28.2822 27.2328 28.2443 26.9584 28.2048C26.6312 28.2177 26.2974 28.2321 25.9702 28.2434C25.5561 28.258 25.3887 28.2291 25.2806 28.1294C25.186 28.042 25.2987 27.9665 25.6191 27.9475C25.9463 27.9285 26.2536 27.9157 26.4196 27.8371C26.579 27.7615 26.8592 27.7318 27.2065 27.7251C27.4269 27.7201 27.6473 27.709 27.8676 27.6994C28.1547 27.6866 28.3075 27.608 28.2463 27.5205C28.2122 27.4637 28.1448 27.4162 27.8841 27.4044C26.7277 27.3526 26.7143 27.3541 26.1385 27.2507C26.0849 27.2415 26.0446 27.214 26.0645 27.2001C26.0976 27.177 26.1707 27.1431 26.2508 27.1383C27.0186 27.1032 27.7865 27.0711 28.5545 27.0468C28.8082 27.0386 28.9952 27.0275 29.0813 26.9706C29.2006 26.892 29.1463 26.8199 28.9118 26.7665C28.8382 26.7498 28.7175 26.7285 28.6374 26.7301C27.7559 26.7593 26.8812 26.7962 25.9997 26.8253C25.9196 26.8286 25.7724 26.8027 25.7387 26.7828C25.6715 26.746 25.771 26.6967 26.0046 26.6794C26.3116 26.6558 26.6256 26.6537 26.8318 26.5766C27.1177 26.467 27.4705 26.3665 27.7899 26.2615C27.8431 26.243 27.9297 26.2075 27.9096 26.2044C27.7422 26.1709 27.5481 26.1451 27.374 26.1132C27.0794 26.0599 27.0784 25.9846 27.1443 25.9123C27.1971 25.8539 27.3972 25.8305 27.6444 25.83C27.7513 25.8298 27.8849 25.8296 27.9716 25.8156C28.1983 25.7814 28.2713 25.7383 28.1573 25.7062C28.0903 25.6879 27.9698 25.662 27.8896 25.6652C26.4606 25.7184 25.0248 25.7701 23.6026 25.8355C23.1819 25.8547 22.9876 25.7966 22.7333 25.7556C22.5391 25.7237 22.3585 25.7117 22.1183 25.7351C21.8914 25.757 21.6709 25.7452 21.53 25.6947C21.4159 25.6534 21.6158 25.6177 22.1565 25.5769C22.2566 25.569 22.3701 25.5642 22.4434 25.5487C23.2163 25.3814 23.2162 25.3799 23.7504 25.3575C24.2713 25.3366 24.2714 25.335 24.5442 25.2455C24.6706 25.2038 24.8103 25.162 24.93 25.1188C24.9766 25.1018 25.0565 25.071 25.0296 25.0618C24.8821 25.0144 24.6815 25.004 24.4478 25.0152C23.927 25.0422 23.3122 25.0218 23.0401 25.1682C22.9339 25.2237 22.767 25.2393 22.5266 25.249C20.1094 25.3423 17.6921 25.4417 15.2681 25.532C14.8741 25.5465 14.6945 25.6036 14.5416 25.6669C14.4087 25.7194 14.2618 25.735 14.0081 25.7446C13.7543 25.7543 13.5539 25.7593 13.4063 25.7088C13.3191 25.6782 13.3921 25.6351 13.5919 25.5917C13.8785 25.5298 13.8241 25.4531 13.7296 25.381C13.6623 25.3335 13.4548 25.3001 13.2343 25.3035C12.9071 25.3102 12.5934 25.3277 12.3187 25.2667C12.158 25.2316 11.9572 25.2074 11.7765 25.177C11.4283 25.1146 11.0801 25.0507 10.5929 25.093C10.2587 25.0782 10.0242 25.0233 9.75648 24.9808C9.30802 24.9109 9.2678 24.9002 9.58755 24.8244C9.94728 24.7392 9.66529 24.6291 9.8647 24.5458C10.0774 24.4563 10.3705 24.3775 10.63 24.2941C10.6966 24.2724 10.7565 24.2524 10.823 24.2307C10.669 24.2003 10.5283 24.1621 10.3476 24.1409C10.1135 24.1137 9.99279 24.0801 10.005 23.9848C9.95806 23.9711 9.97839 24.0064 10.0319 24.0155C10.0922 24.0246 10.2392 24.0167 10.3125 24.0058C10.4992 23.9763 10.5922 23.9377 10.545 23.9055C10.5181 23.8887 10.391 23.8674 10.3108 23.8675C10.1639 23.8678 10.0374 23.9018 9.9983 23.9848C9.25085 24.0491 8.47615 24.0812 7.7015 24.1071C7.62138 24.1103 7.52085 24.0798 7.42714 24.0646C7.11919 24.0129 7.11917 24.0144 6.21711 24.0006C6.12356 23.9992 5.99644 23.9779 5.94941 23.9565C5.75453 23.8631 5.76001 23.7602 5.66527 23.6605C5.83818 23.5957 6.01097 23.5324 6.19058 23.4691C6.54978 23.3409 7.01616 23.228 7.29504 23.0877C7.234 23.0125 7.1529 22.9374 7.4461 22.8754C8.28023 22.7971 8.2736 22.7972 8.49985 22.723C9.14532 22.513 9.78405 22.3014 10.4563 22.0943C10.636 22.0402 10.6357 22.0111 10.3147 21.9886C10.2144 21.9826 10.1074 21.9813 10.0005 21.9845C9.66664 21.9958 9.33296 22.0241 9.00553 22.0185C8.67813 22.0145 8.43681 21.9473 8.16908 21.9063C7.89465 21.8637 7.62022 21.8196 7.34577 21.7756C7.03184 21.7807 6.71844 21.8243 6.40361 21.7557C6.16246 21.7023 5.86138 21.6645 5.58694 21.6204C5.79261 21.5033 6.17906 21.4135 6.47843 21.31C6.75119 21.2158 6.75774 21.2174 7.49173 21.1439C7.83871 21.1095 7.95685 20.9357 7.66229 20.8855C7.30747 20.8246 6.93274 20.7684 6.57128 20.7107C6.25735 20.7158 5.93725 20.7579 5.63579 20.6893C5.40133 20.6375 5.13363 20.6026 4.7464 20.6232C4.09211 20.6582 3.42428 20.6762 2.76324 20.705C2.53622 20.7146 2.28889 20.7089 2.18804 20.6569C2.12079 20.6201 2.31392 20.5691 2.53425 20.5579C2.86809 20.542 3.16846 20.523 3.33454 20.4459C3.49394 20.3688 3.78757 20.3453 4.13483 20.3339C4.22832 20.3307 4.33506 20.3121 4.3816 20.2935C4.62102 20.204 4.88732 20.1267 5.40176 20.1289C5.61517 20.0978 5.7282 20.0592 5.66094 20.0225C5.62062 20.0026 5.48008 19.9767 5.39995 19.9799C4.84565 19.9962 4.29137 20.0126 3.75058 20.0412C3.49687 20.0539 3.30306 20.0573 3.14217 20.0115C3.02823 19.9809 3.08784 19.9394 3.30108 19.8944C3.48766 19.8557 3.54062 19.8111 3.52663 19.7588C3.49175 19.6375 3.29086 19.6026 2.64962 19.6114C2.18874 19.6183 2.07492 19.5985 1.97344 19.4942C1.94642 19.4697 1.87932 19.436 1.92587 19.419C2.21187 19.3141 2.39736 19.1847 2.93789 19.1346C3.15145 19.1158 3.37849 19.1154 3.51162 19.0752C3.64474 19.035 3.76449 18.9887 3.90432 18.9501C4.07745 18.9037 4.19706 18.8605 4.11654 18.8314C3.98229 18.7794 3.76853 18.7752 3.52157 18.7941C3.30798 18.8098 3.08086 18.8117 2.86052 18.8213C2.46657 18.8389 2.14549 18.7995 2.0979 18.732C1.9688 18.554 1.833 18.3776 1.71726 18.1996C1.70364 18.1781 1.73661 18.1503 1.78983 18.1318C1.9761 18.067 2.17585 18.0052 2.36882 17.9418C2.59508 17.8692 2.95606 17.8825 3.2632 17.8681C3.69719 17.8474 3.69706 17.8489 4.27647 17.7004C4.5029 17.6416 4.89735 17.664 5.13054 17.6113C5.20382 17.5943 5.31705 17.5665 5.29682 17.5511C5.26986 17.5312 5.13613 17.5161 5.03581 17.507C4.94217 17.498 4.82857 17.4936 4.72842 17.4984C3.5131 17.545 2.30453 17.5947 1.08919 17.6399C0.882185 17.6479 0.654628 17.6145 0.580562 17.567C0.506533 17.5226 0.525855 17.4688 0.511877 17.4181C0.704846 17.3548 0.92451 17.296 1.0907 17.2281C1.217 17.1757 1.36371 17.1524 1.61754 17.1489C1.95151 17.1437 2.27867 17.1247 2.65261 17.1102C3.34466 16.8847 4.02317 16.6485 4.76866 16.4229C5.06818 16.3317 4.99369 16.2396 5.05264 16.1427C5.11168 16.0535 5.55942 16.0666 5.85973 16.04C6.09997 16.018 6.17943 15.9687 6.08549 15.9351C6.0318 15.9152 5.91134 15.8924 5.81781 15.8925C5.59735 15.8929 5.37707 15.9071 5.1567 15.9152C4.93634 15.9233 4.68243 15.9191 4.50237 15.9455C4.32898 15.9704 4.21598 16.0228 4.10295 16.0676C3.97662 16.117 3.80993 16.1342 3.55611 16.1377C3.22879 16.1413 2.90163 16.1557 2.57442 16.167C2.21294 16.1077 1.83804 16.05 1.48988 15.9876C1.42293 15.9755 1.40906 15.9401 1.41546 15.9171C1.4281 15.8572 1.32746 15.8204 1.10665 15.7916C0.919295 15.7674 0.765199 15.7323 0.59113 15.7019C0.724236 15.6602 0.870775 15.62 0.977121 15.5752C1.2098 15.4811 1.50295 15.413 2.01072 15.4152C2.2104 15.3549 2.36979 15.2809 2.62983 15.239C2.87652 15.1986 3.29791 15.2378 3.48386 15.1469C3.57684 15.1021 3.7166 15.0512 3.89675 15.0324C4.18366 15.0028 4.55795 15.0175 4.72392 14.9312C4.82353 14.8818 4.9699 14.837 5.16348 14.8244C5.38377 14.8102 5.61082 14.8067 5.7708 14.7773C5.85746 14.7617 5.9507 14.737 5.95044 14.7155C5.95027 14.7017 5.8165 14.6804 5.72286 14.6713C5.63588 14.6607 5.52209 14.6532 5.42192 14.6565C5.088 14.6663 4.76086 14.6837 4.42695 14.6935C4.33346 14.6968 4.22647 14.6862 4.12615 14.6772C3.83191 14.6531 3.85153 14.6223 4.08468 14.5666C4.31785 14.5124 4.48411 14.443 4.67708 14.3797C4.89073 14.3686 5.15797 14.3727 5.30458 14.3433C5.55118 14.2952 5.72399 14.2258 5.92368 14.1655C6.14403 14.1559 6.37111 14.1525 6.57801 14.1352C6.66478 14.1289 6.70448 14.095 6.77773 14.0749C6.91087 14.0363 7.02386 13.9808 7.20401 13.962C7.49762 13.9339 7.85849 13.944 8.03116 13.8592C8.13077 13.8099 8.28373 13.7574 8.47074 13.754C8.99175 13.7469 9.21119 13.662 9.47744 13.5817C9.67713 13.5214 10.1051 13.5514 10.3248 13.4911C10.4713 13.4524 10.5777 13.4046 10.7242 13.3675C10.7841 13.352 10.9109 13.3441 11.0111 13.3394C11.5586 13.3154 12.1129 13.2975 12.6604 13.272C12.7472 13.2672 12.8271 13.244 12.8937 13.2255C13.0335 13.1853 13.1196 13.1298 13.293 13.1034C13.4663 13.077 13.7135 13.0766 13.9272 13.0685C14.615 13.0443 14.6686 13.0503 14.981 12.9192C15.2335 12.8127 15.8558 12.8869 16.0615 12.7698C16.1809 12.702 16.4006 12.6463 16.7947 12.638C17.349 12.6262 17.8965 12.5961 18.4507 12.5752C18.9448 12.5559 18.9382 12.5559 19.4709 12.4121C19.7106 12.3471 20.0649 12.3557 20.3787 12.3429C20.7126 12.33 21.0196 12.3111 21.179 12.234C21.3384 12.1584 21.632 12.1333 21.9726 12.122C22.2865 12.1107 22.6407 12.1178 22.8872 12.0559C23.4866 11.9073 23.4799 11.9058 23.9006 11.8897C24.5617 11.864 25.2227 11.8383 25.8838 11.811C26.3245 11.7933 26.7854 11.7895 27.1992 11.7549C27.4995 11.7298 27.632 11.6436 27.8251 11.5833C28.3726 11.5593 28.9201 11.5353 29.4676 11.5129C30.2355 11.4808 31.0101 11.4518 31.7847 11.4213C32.118 11.3623 32.1633 11.2332 32.7244 11.2261C33.0584 11.2224 33.3855 11.2019 33.7194 11.189C34.2736 11.1665 34.8211 11.1379 35.3754 11.1262C35.7962 11.1178 35.8685 11.0347 36.0884 10.9821C36.1616 10.9635 36.2282 10.9373 36.315 10.9325C37.1829 10.888 38.0779 10.8772 38.9256 10.8128C39.0124 10.8065 39.0922 10.7741 39.1119 10.751C39.1252 10.7387 39.0113 10.7158 38.9377 10.7052C38.8507 10.6931 38.737 10.681 38.6435 10.6842C35.8857 10.7919 33.128 10.9012 30.3701 11.0089C29.9829 11.025 29.9828 11.0234 29.0429 11.194C28.9629 11.208 28.8695 11.2235 28.7693 11.2283C28.3286 11.2475 27.8812 11.2591 27.4472 11.2829C27.0934 11.3019 26.7993 11.284 26.5448 11.2291C26.3639 11.1895 26.1766 11.1775 25.9495 11.181C25.6957 11.186 25.529 11.2032 25.3825 11.245C25.1895 11.3021 25.0902 11.376 24.6828 11.3921C22.8064 11.4614 20.9299 11.5384 19.0602 11.6124C18.7994 11.5913 18.6721 11.5593 18.7385 11.5207C18.7783 11.4976 18.8581 11.4668 18.9382 11.4636C19.7061 11.43 20.4807 11.401 21.2486 11.3689C21.3554 11.3641 21.5024 11.3669 21.5623 11.3514C21.8554 11.2818 21.9611 11.1695 22.5155 11.1608C22.8361 11.1557 23.1631 11.1321 23.4701 11.11C23.5569 11.1037 23.6367 11.0713 23.6565 11.0482C23.663 11.0359 23.5558 11.0131 23.4755 11.0024C23.181 10.9584 22.8411 11.0128 22.5467 10.9826C22.4464 10.972 22.3058 10.9569 22.2856 10.9385C22.272 10.9216 22.3852 10.8937 22.4652 10.8767C22.5385 10.8612 22.6385 10.8472 22.7386 10.8424C23.62 10.8056 24.5016 10.7671 25.3831 10.738C25.7437 10.7266 25.997 10.6877 26.1565 10.6168C26.2761 10.5643 26.4227 10.5364 26.6498 10.5284C28.1923 10.4688 29.7347 10.4032 31.284 10.3482C31.6713 10.3353 31.8712 10.2842 32.0307 10.2179C32.157 10.1654 32.3037 10.1468 32.5508 10.1371C34.7611 10.0534 36.9579 9.96046 39.1682 9.87981C39.5756 9.86527 39.6951 9.799 39.9015 9.7418C39.9747 9.7217 40.0211 9.69704 40.1144 9.68458C40.2078 9.67213 40.3281 9.67345 40.4416 9.67018C42.2045 9.60105 43.9674 9.52733 45.737 9.46281C46.151 9.44826 46.2301 9.3713 46.4433 9.31715C46.5165 9.30013 46.5831 9.27237 46.6699 9.26761C47.992 9.21307 49.3141 9.16162 50.6362 9.10862C51.5176 9.07329 52.399 9.03796 53.2805 9.00416C53.7145 8.98805 53.7145 8.9865 54.3007 8.83953C54.3673 8.82252 54.4606 8.80238 54.5474 8.79762C57.0848 8.69489 59.6155 8.5968 62.153 8.4956C62.3667 8.48755 62.5199 8.45193 62.6261 8.39951C62.7324 8.34709 62.8857 8.31149 63.0927 8.30345C65.0759 8.22318 67.0591 8.14447 69.049 8.0688C69.4096 8.05589 69.663 8.01857 69.8225 7.94916C69.9421 7.89672 70.0887 7.86882 70.3157 7.86074C72.299 7.78355 74.2823 7.70174 76.2722 7.62762C76.6528 7.61313 76.8392 7.56058 77.0255 7.4988C77.092 7.47717 77.1451 7.44174 77.2252 7.43853C78.2134 7.3938 79.1949 7.34754 80.1899 7.31662C80.604 7.30361 80.7435 7.23884 80.9098 7.1771C81.0428 7.1277 81.1963 7.11054 81.4501 7.10396C82.0044 7.08917 82.5518 7.06211 83.0927 7.03505C83.1728 7.0303 83.2726 6.99633 83.279 6.97481C83.2919 6.93484 83.1378 6.90745 82.8838 6.89407C80.2395 6.99852 77.5886 7.10298 74.9443 7.20743C74.5103 7.22508 74.5103 7.22509 73.9242 7.37206C73.8576 7.38908 73.7642 7.40922 73.6707 7.41399C71.1333 7.51518 68.6026 7.61483 66.0651 7.71603C65.8515 7.72408 65.6983 7.75968 65.592 7.8121C65.4858 7.86452 65.3324 7.90012 65.1254 7.90816C62.7015 8.00455 60.2776 8.10248 57.847 8.19427C57.4864 8.20719 57.233 8.24295 57.0735 8.3139C56.9539 8.36634 56.8073 8.39426 56.5802 8.40234C54.2631 8.4924 51.9527 8.58704 49.6288 8.67404C49.3951 8.68213 49.221 8.63787 49.2338 8.59637C49.2402 8.57485 49.3399 8.53936 49.42 8.53615C50.6286 8.48335 51.8306 8.42902 53.046 8.3885C53.4533 8.3755 53.5726 8.3077 53.7791 8.25049C53.8456 8.23041 53.8988 8.2042 53.9855 8.19329C54.0789 8.18084 54.1991 8.18217 54.3127 8.1789C57.1773 8.06485 60.042 7.94926 62.9134 7.84134C63.3274 7.82526 63.4065 7.74983 63.6197 7.69569C63.6929 7.67712 63.7594 7.64936 63.8463 7.64614C64.7276 7.60774 65.6091 7.57394 66.4905 7.54014C68.033 7.47908 69.5755 7.41802 71.1246 7.35695C71.572 7.33927 71.5721 7.33927 72.1448 7.19386C72.2114 7.17684 72.3048 7.15519 72.3916 7.15196C76.4715 6.98971 80.5515 6.82745 84.6315 6.66673C84.8451 6.65868 84.9983 6.62308 85.1046 6.57066C85.2109 6.51978 85.364 6.48264 85.571 6.47306C91.0866 6.25454 96.5956 6.03602 102.111 5.82057C102.472 5.80612 102.725 5.77341 102.885 5.70093C102.998 5.6485 103.151 5.62059 103.378 5.61097C109.441 5.37153 115.504 5.13209 121.574 4.8911C125.654 4.73038 129.734 4.56659 133.814 4.40894C134.188 4.39447 134.388 4.34648 134.574 4.28317C134.634 4.26156 134.694 4.22612 134.774 4.22291C135.648 4.18298 136.523 4.14613 137.398 4.10927C137.672 4.15028 137.947 4.18975 138.221 4.23076C138.427 4.17202 138.627 4.11175 138.834 4.05301C140.156 4.00616 141.458 3.93477 142.793 3.91094C142.88 3.90925 142.974 3.93828 143.068 3.95348C143.69 4.04919 144.044 4.04089 144.437 3.91116C144.577 3.86483 144.696 3.82314 144.91 3.81509C145.571 3.78628 146.239 3.76669 146.893 3.73329C147.247 3.71577 147.541 3.73062 147.796 3.78549C147.977 3.82512 148.164 3.8417 148.384 3.8321C149.6 3.7839 150.808 3.73724 152.023 3.68597C152.11 3.68275 152.19 3.65648 152.257 3.63793C152.396 3.59774 152.516 3.55453 152.649 3.51281C152.83 3.53862 153.031 3.55824 153.178 3.59179C153.366 3.63141 153.539 3.6311 153.793 3.6199C158.641 3.42559 163.495 3.23587 168.343 3.04002C168.757 3.02394 168.938 3.08815 169.219 3.12147C169.313 3.13359 169.407 3.14879 169.507 3.15168C169.614 3.15457 169.727 3.14517 169.834 3.14037C173.473 2.99578 177.113 2.85272 180.752 2.70813C181.233 2.68886 181.233 2.68886 181.949 2.78287C182.036 2.795 182.149 2.80864 182.243 2.80387C183.899 2.74107 185.555 2.67368 187.204 2.60936C187.418 2.60131 187.599 2.62557 187.793 2.66057C188.175 2.72904 188.201 2.729 188.48 2.62712C188.613 2.57926 188.753 2.54981 188.974 2.5356C189.214 2.51982 189.408 2.52411 189.595 2.55144C189.863 2.58938 190.058 2.65356 190.465 2.63595C192.228 2.56068 193.997 2.4977 195.753 2.42091C196.154 2.40331 196.368 2.45517 196.636 2.49311C196.73 2.50678 196.817 2.52814 196.917 2.53257C197.017 2.53701 197.138 2.52603 197.244 2.52124C199.448 2.43445 201.658 2.3492 203.855 2.25628C204.269 2.23866 204.45 2.30439 204.731 2.33771C204.825 2.34983 204.932 2.37117 205.019 2.36794C206.341 2.31802 207.67 2.265 208.992 2.21201C209.466 2.19275 209.466 2.19428 210.189 2.28674C210.276 2.29888 210.389 2.31098 210.483 2.30774C212.025 2.24822 213.575 2.18715 215.117 2.12609C215.591 2.10683 215.591 2.10683 216.962 2.18434C217.062 2.19031 217.169 2.19936 217.269 2.19611C219.032 2.12699 220.802 2.05938 222.564 1.98565C222.918 1.97121 223.212 1.98298 223.467 2.03785C223.648 2.07748 223.835 2.09406 224.055 2.08446C226.039 2.00574 228.029 1.93008 230.005 1.84675C230.386 1.83073 230.633 1.86409 230.901 1.90817C230.988 1.92339 231.075 1.94475 231.175 1.95072C231.276 1.95669 231.389 1.95034 231.496 1.94555C233.479 1.86682 235.469 1.7927 237.446 1.70784C237.846 1.69025 238.061 1.74211 238.328 1.78005C238.422 1.79371 238.523 1.8212 238.603 1.81952C239.377 1.79206 240.152 1.76767 240.92 1.72793C241.334 1.70571 241.515 1.77605 241.796 1.80936C241.89 1.81995 241.997 1.84282 242.084 1.8396C243.74 1.77681 245.396 1.71094 247.045 1.64355C247.279 1.63393 247.453 1.64744 247.64 1.68706C247.888 1.7404 248.176 1.76141 248.536 1.74389C249.304 1.70722 250.079 1.6813 250.853 1.65076C251.307 1.63307 251.307 1.63308 252.698 1.71055C252.798 1.71653 252.905 1.72555 253.005 1.7223C254.327 1.67085 255.656 1.62091 256.972 1.56486C257.325 1.54888 257.62 1.56219 257.874 1.61706C258.055 1.65669 258.235 1.67328 258.463 1.66367C259.678 1.61547 260.887 1.56728 262.102 1.51908C262.543 1.50141 262.983 1.47145 263.424 1.47068C263.745 1.47166 263.979 1.545 264.267 1.58137C264.347 1.59198 264.481 1.57948 264.588 1.57622C266.13 1.51516 267.679 1.45869 269.215 1.38996C269.616 1.37237 269.83 1.42423 270.098 1.46217C270.192 1.47583 270.292 1.50331 270.372 1.50164C270.927 1.48378 271.474 1.45978 272.028 1.43884C272.689 1.41311 273.357 1.39352 274.012 1.35858C274.546 1.33 274.748 1.46331 275.175 1.46717C275.503 1.47121 275.836 1.44452 276.164 1.43166C276.825 1.40593 277.486 1.37713 278.147 1.35448C278.38 1.34639 278.561 1.32148 278.634 1.26605C278.647 1.25527 278.533 1.23244 278.459 1.21874C277.569 1.06358 277.569 1.06357 276.674 1.09892C276.12 1.12139 275.572 1.14386 275.018 1.16326C274.924 1.16649 274.817 1.15439 274.724 1.14533C274.456 1.11968 274.483 1.08891 274.709 1.03321C274.936 0.977507 275.108 0.909614 275.301 0.84629C275.576 0.885758 275.844 0.925223 276.118 0.964691C276.338 0.956627 276.559 0.94704 276.779 0.938975C277.881 0.897117 278.983 0.85372 280.084 0.814934C280.165 0.811722 280.265 0.842279 280.359 0.85748C280.627 0.901568 280.868 0.939547 281.255 0.921975C282.243 0.875705 283.238 0.841714 284.226 0.80159C284.66 0.783936 284.66 0.783938 285.423 0.877866C285.51 0.888469 285.624 0.900563 285.717 0.897328C286.712 0.860264 287.7 0.820144 288.695 0.781545C288.909 0.773492 289.116 0.793103 289.271 0.837389C289.331 0.85572 289.318 0.886463 289.575 1.13798C290.366 1.34093 290.907 1.3185 291.454 1.29911C291.688 1.29102 291.895 1.28297 292.048 1.25198C292.128 1.23494 292.228 1.21018 292.228 1.19021C292.228 1.17485 292.08 1.15052 291.987 1.14761C291.325 1.11803 290.698 1.18366 290.05 1.19861C289.749 1.20527 289.488 1.15196 289.434 1.06448C289.42 1.03992 289.4 1.01384 289.379 0.989295C289.359 0.964749 289.345 0.938657 289.325 0.914111C289.064 0.906882 288.911 0.934798 288.798 0.987229C288.705 1.03041 288.572 1.0798 288.392 1.10316C288.212 1.12805 287.965 1.12388 287.744 1.13195C287.531 1.14 287.297 1.16037 287.097 1.14997C286.896 1.13803 286.735 1.09374 286.548 1.06642C286.461 1.05274 286.354 1.03296 286.267 1.03618C285.499 1.06364 284.738 1.09107 283.976 1.12619C283.576 1.14532 283.375 1.08115 283.12 1.04165C282.919 1.01127 282.719 1.01929 282.686 1.09002C282.602 1.25916 282.91 1.3293 283.591 1.29585C284.152 1.26722 284.659 1.26175 285.102 1.36545C285.162 1.37917 285.302 1.38507 285.389 1.38185C285.937 1.36246 286.477 1.33847 287.025 1.31909C287.125 1.31584 287.232 1.32179 287.326 1.32777C288.69 1.40836 288.69 1.40991 289.15 1.39067C289.371 1.38107 289.584 1.37302 289.562 1.13954C289.979 0.888389 290.647 0.870332 291.295 0.832336C291.715 0.80856 291.897 0.875847 292.171 0.910707C292.265 0.922834 292.365 0.947237 292.452 0.944013C293.888 0.890821 295.317 0.83456 296.746 0.775234C296.986 0.765599 297.16 0.774516 297.347 0.814135C297.588 0.864416 297.856 0.89622 298.237 0.877124C298.998 0.83893 299.772 0.814545 300.547 0.782473C300.941 0.766425 300.941 0.76641 301.737 0.860279C301.824 0.870883 301.938 0.882977 302.031 0.879742C302.806 0.852279 303.574 0.818692 304.342 0.789704C304.555 0.781651 304.749 0.802821 304.917 0.844011C305.084 0.885201 305.285 0.906359 305.492 0.898318C306.267 0.869318 307.035 0.837268 307.803 0.80828C307.896 0.805045 308.01 0.815602 308.097 0.826205C308.913 0.92004 308.913 0.920024 309.287 0.904011C309.834 0.880016 310.395 0.868299 310.936 0.836633C311.463 0.804991 311.738 0.893613 312.1 0.942148C313.088 0.905096 314.083 0.874185 315.065 0.829463C315.465 0.810331 315.68 0.860653 315.947 0.900133C316.041 0.913797 316.135 0.942828 316.222 0.941141C316.556 0.934415 316.883 0.91695 317.21 0.904091C317.537 0.891232 317.871 0.878364 318.198 0.865505C318.573 0.909408 318.822 1.01345 319.356 0.977182C319.676 0.955117 320.017 0.949916 320.344 0.937058C320.671 0.924199 321.005 0.91133 321.332 0.898471C321.552 0.890406 321.78 0.885396 321.993 0.871198C322.387 0.847469 322.582 0.922421 322.863 0.955732C322.956 0.966323 323.063 0.984562 323.15 0.981338C323.811 0.958681 324.479 0.939087 325.127 0.902627C325.627 0.874103 325.969 0.919606 326.324 0.983516C326.397 0.997215 326.524 1.00468 326.618 1.00144C327.392 0.973978 328.16 0.940372 328.928 0.911385C329.135 0.903343 329.336 0.927575 329.503 0.967229C329.678 1.00841 329.872 1.02806 330.085 1.02001C330.853 0.991017 331.628 0.958936 332.396 0.929949C332.489 0.926714 332.603 0.938809 332.69 0.950949C333.439 1.0449 333.439 1.04644 333.88 1.02724C333.987 1.02244 334.1 1.01916 334.207 1.01437C334.755 0.991906 335.323 0.983249 335.857 0.945449C336.471 0.902902 336.919 0.954361 337.354 1.04118C337.902 1.02179 338.463 1.01006 338.997 0.978404C339.397 0.954663 339.612 1.01267 339.88 1.05061C339.973 1.06428 340.074 1.09176 340.154 1.08854C340.929 1.06108 341.703 1.0367 342.464 0.996969C342.878 0.974741 343.059 1.04355 343.34 1.0784C343.434 1.09052 343.535 1.11187 343.621 1.10865C344.062 1.09559 344.503 1.07638 344.944 1.05871C345.458 1.03785 345.458 1.03938 346.14 1.13192C346.462 1.17591 346.782 1.14002 347.096 1.12872C347.43 1.11585 347.743 1.10609 348.011 1.16861C348.179 1.20827 348.38 1.2325 348.587 1.22599C349.027 1.2114 349.475 1.1968 349.909 1.17301C350.256 1.15397 350.557 1.16573 350.811 1.22213C350.992 1.26176 351.179 1.28142 351.4 1.27182C352.388 1.23323 353.383 1.19308 354.371 1.15603C354.458 1.15281 354.578 1.16643 354.659 1.18012C354.846 1.20744 355.027 1.23785 355.208 1.26826C355.642 1.25368 356.089 1.24678 356.517 1.22452C356.971 1.20223 357.385 1.19382 357.74 1.27771C357.814 1.29601 357.921 1.32193 358.008 1.32024C358.341 1.31352 358.669 1.29759 358.996 1.28473C359.323 1.27187 359.657 1.25901 359.984 1.24615C360.365 1.28389 360.607 1.39409 361.141 1.35782C361.462 1.33576 361.802 1.33056 362.13 1.3177C362.457 1.30484 362.791 1.29043 363.118 1.27911C363.225 1.27585 363.345 1.26796 363.438 1.27394C363.539 1.27991 363.626 1.30128 363.713 1.31649C363.981 1.36058 364.228 1.4047 364.609 1.37793C364.929 1.35586 365.27 1.35066 365.597 1.33626C366.044 1.31859 366.044 1.31859 366.787 1.41409C367.088 1.45351 367.428 1.40069 367.716 1.43399C367.91 1.45669 368.078 1.4948 368.265 1.5206C368.345 1.53121 368.472 1.53559 368.566 1.53236C369.006 1.51777 369.454 1.50317 369.888 1.47937C370.242 1.46032 370.536 1.47824 370.784 1.53312C370.965 1.57275 371.145 1.58934 371.372 1.57973C372.474 1.5348 373.576 1.496 374.671 1.44648C375.045 1.42893 375.346 1.45453 375.553 1.50948C375.909 1.60411 376.408 1.49109 376.777 1.56727C377.004 1.6145 377.232 1.66942 377.646 1.64565C378.407 1.60439 379.182 1.58152 379.95 1.55253C380.224 1.59354 380.499 1.63455 380.78 1.67554C381.22 1.65788 381.661 1.6402 382.102 1.62407C382.429 1.61122 382.763 1.59681 383.09 1.58549C383.197 1.58223 383.31 1.57589 383.411 1.58339C383.511 1.5909 383.592 1.61074 383.685 1.62594C384.147 1.70042 384.147 1.70196 384.908 1.66991C385.236 1.65552 385.549 1.64575 385.824 1.70673C386.079 1.76313 386.379 1.77336 386.727 1.75585C387.381 1.72399 388.042 1.6998 388.71 1.67713C388.917 1.66909 389.111 1.69487 389.285 1.73451C389.546 1.79705 389.867 1.79035 390.194 1.77288C390.628 1.75062 391.055 1.72837 391.424 1.81377C391.497 1.83207 391.611 1.85798 391.692 1.8563C392.239 1.84306 392.794 1.83289 393.328 1.80277C393.862 1.77265 394.123 1.86745 394.491 1.9129C395.039 1.89198 395.593 1.87104 396.141 1.85012C396.248 1.84532 396.374 1.83128 396.468 1.8388C396.863 1.87038 397.091 1.9852 397.632 1.94893C397.946 1.92841 398.286 1.92168 398.613 1.91651C398.7 1.91482 398.814 1.94073 398.875 1.96059C398.908 1.97129 398.875 2.00053 398.835 2.01597C398.715 2.05919 398.569 2.0994 398.463 2.14414C398.449 2.15031 398.577 2.17773 398.65 2.18989C398.831 2.21723 399.038 2.21228 399.278 2.19957C399.485 2.18845 399.699 2.20959 399.847 2.25542C399.907 2.27376 399.888 2.30451 399.762 2.40613C399.763 2.48141 399.903 2.44736 399.949 2.39812C400.021 2.32732 399.881 2.30452 399.614 2.34339C399.427 2.37137 399.334 2.41148 399.382 2.44366C399.408 2.46051 399.536 2.4818 399.762 2.40613C400.349 2.31293 400.789 2.29527 401.23 2.27761C401.344 2.2728 401.477 2.2572 401.557 2.26628C401.845 2.30265 402.113 2.34674 402.394 2.38774C402.714 2.37796 403.015 2.35439 403.329 2.41376C403.771 2.49749 403.791 2.48977 404.219 2.47213C404.439 2.46253 404.659 2.45448 404.88 2.44641C405.1 2.43835 405.274 2.46109 405.468 2.49608C405.863 2.56761 405.897 2.56754 406.156 2.46877C406.309 2.40858 406.416 2.38843 406.61 2.41575C407.252 2.50835 407.259 2.51448 407.806 2.48587C408.26 2.46204 408.688 2.45515 409.023 2.54214C409.251 2.6032 409.324 2.58925 409.504 2.52441C409.983 2.35304 410.203 2.35573 411.106 2.47707C411.528 2.53471 411.962 2.47098 412.389 2.46255C412.75 2.45578 413.004 2.49221 413.032 2.58895C413.053 2.64883 413.113 2.69175 413.354 2.7113C413.448 2.71882 413.561 2.72937 413.655 2.72614C414.209 2.70674 414.757 2.68428 415.311 2.66181C415.591 2.65056 415.744 2.5781 415.69 2.48295C415.628 2.38166 415.735 2.34459 416.135 2.3147C416.375 2.29738 416.569 2.30013 416.763 2.32745C416.978 2.3578 416.918 2.38556 416.731 2.44119C416.285 2.57716 416.34 2.66002 416.915 2.75273C417.116 2.78465 417.277 2.81357 417.324 2.86112C417.351 2.88565 417.325 2.91796 417.385 2.93629C417.714 3.03865 418.169 3.10393 418.677 3.15221C419.164 3.10988 419.499 3.17842 419.874 3.23308C420.169 3.27559 420.516 3.23812 420.829 3.22221C421.183 3.2047 421.477 3.21647 421.732 3.27288C421.913 3.31251 422.1 3.33061 422.32 3.32255C422.761 3.30488 423.209 3.29336 423.642 3.26802C424.016 3.24586 424.297 3.2761 424.532 3.32793C424.826 3.39348 425.153 3.34835 425.461 3.35704C425.875 3.36707 426.084 3.50344 426.625 3.46563C426.945 3.44356 427.279 3.4353 427.613 3.42858C427.7 3.42689 427.807 3.45283 427.881 3.47114C428.236 3.55502 428.65 3.54969 429.104 3.52432C429.418 3.50687 429.725 3.49098 430.033 3.54883C430.542 3.64627 431.104 3.73133 431.639 3.82105C431.714 3.89159 431.661 3.97463 432.043 4.01545C432.243 4.03661 432.431 4.06856 432.585 4.10362C432.772 4.14478 432.946 4.15523 433.186 4.14406C433.62 4.1218 434.075 4.11639 434.502 4.08799C434.896 4.06273 435.144 4.11301 435.385 4.16022C435.579 4.19829 435.76 4.2164 435.993 4.18834C436.233 4.16181 436.407 4.1784 436.601 4.21954C436.876 4.27591 436.896 4.26974 437.805 4.28506C437.898 4.28644 438.012 4.30927 438.066 4.32915C438.093 4.33986 438.033 4.37071 437.986 4.38615C437.926 4.40469 437.833 4.42635 437.746 4.43111C436.758 4.47277 435.763 4.50983 434.775 4.55149C434.675 4.55628 434.568 4.56723 434.495 4.58272C434.415 4.59976 434.315 4.62296 434.315 4.64447C434.315 4.65983 434.449 4.67804 434.543 4.68863C434.837 4.72346 435.184 4.66908 435.472 4.70853C435.666 4.73431 435.826 4.77089 436.02 4.79514C436.101 4.80575 436.228 4.804 436.328 4.80076C436.662 4.78942 436.989 4.77349 437.323 4.7637C437.416 4.762 437.523 4.77718 437.61 4.78932C438.253 4.88038 438.253 4.88038 438.807 4.85945C439.027 4.85138 439.261 4.82793 439.468 4.83679C439.669 4.84566 439.843 4.88683 440.024 4.91264C440.398 4.9673 440.753 5.02045 440.781 5.14023C440.795 5.1863 441.016 5.22585 441.237 5.22854C441.45 5.23125 441.677 5.21397 441.898 5.20437C442.419 5.18503 442.419 5.18502 443.094 5.27757C443.282 5.30336 443.482 5.30608 443.723 5.2903C443.816 5.28399 443.93 5.28994 444.03 5.29745C444.358 5.31993 444.358 5.34911 444.145 5.40479C443.845 5.48673 443.872 5.49437 444.715 5.56205C445.036 5.58761 445.283 5.63634 445.551 5.67889C445.986 5.74727 445.98 5.74727 445.693 5.83841C445.627 5.8585 445.567 5.88012 445.5 5.90174C445.307 5.96199 445.155 6.02678 444.754 6.03362C444.313 6.04053 443.872 6.06589 443.432 6.08355C443.004 6.1012 442.891 6.13825 442.933 6.24265C442.981 6.36854 443.068 6.38222 443.836 6.37935C444.057 6.37897 444.25 6.39092 444.418 6.43211C444.338 6.48141 444.192 6.52007 443.978 6.52966C443.431 6.55366 442.876 6.5746 442.329 6.59552C441.888 6.61319 441.447 6.63085 441.007 6.64851C440.733 6.65974 440.56 6.73994 440.635 6.82891C440.676 6.87954 440.709 6.93018 440.744 6.98082C440.818 7.08209 440.959 7.10797 441.406 7.10258C441.52 7.10085 441.627 7.08836 441.734 7.09125C442.168 7.10125 442.377 7.2284 442.897 7.20138C443.331 7.17912 443.786 7.17372 444.213 7.14533C444.607 7.12006 444.828 7.175 445.102 7.216C445.196 7.22967 445.297 7.25867 445.377 7.25699C445.931 7.23913 446.485 7.22128 447.026 7.19115C447.28 7.17842 447.433 7.18737 447.634 7.22389C448.116 7.31216 448.13 7.30753 448.844 7.27863C449.365 7.25622 449.372 7.25928 450.041 7.35183C450.228 7.37763 450.429 7.37727 450.669 7.36456C450.983 7.34866 451.31 7.32351 451.638 7.34598C451.738 7.35196 451.865 7.37018 451.899 7.39009C451.919 7.40388 451.826 7.43784 451.746 7.44874C451.159 7.52965 450.471 7.51702 449.83 7.55039C449.629 7.55996 449.428 7.53111 449.261 7.48992C449.087 7.44875 448.9 7.43218 448.672 7.44025C448.232 7.45792 447.784 7.46944 447.35 7.49478C446.977 7.51694 446.716 7.48205 446.454 7.43488C446.367 7.41967 446.267 7.39065 446.18 7.39233C445.192 7.42478 444.197 7.45724 443.215 7.50196C442.821 7.52108 442.593 7.47232 442.326 7.4313C442.232 7.41764 442.138 7.38861 442.051 7.39029C441.717 7.39702 441.39 7.41449 441.056 7.42736C439.841 7.47556 438.632 7.52375 437.417 7.56887C437.337 7.57209 437.236 7.53999 437.143 7.52633C436.962 7.49899 436.774 7.47319 436.587 7.4474C436.253 7.46027 435.926 7.4762 435.592 7.486C435.352 7.49256 435.138 7.51445 435.106 7.57289C435.086 7.61133 435.307 7.64628 435.541 7.6428C435.768 7.63933 435.995 7.6205 436.182 7.64015C437.112 7.73686 437.112 7.7384 437.693 7.71741C438.2 7.6981 438.147 7.68282 438.595 7.76654C438.789 7.80307 438.963 7.82429 439.184 7.81469C439.731 7.79223 440.286 7.76976 440.84 7.75036C440.927 7.74713 441.04 7.76231 441.127 7.77444C441.783 7.86549 441.783 7.86855 442.324 7.84457C443.032 7.81569 443.059 7.80796 443.534 7.90085C443.862 7.96481 444.162 7.91973 444.476 7.91611C444.838 7.9754 445.232 8.02849 445.561 8.09552C445.949 8.17474 446.356 8.16019 446.797 8.13638C447.124 8.11891 447.445 8.11221 447.713 8.17473C447.967 8.23267 448.275 8.23829 448.622 8.22233C448.936 8.20796 449.256 8.1782 449.584 8.21143C449.671 8.2205 449.805 8.24332 449.798 8.25716C449.792 8.27868 449.705 8.30956 449.618 8.31893C449.005 8.38298 448.33 8.38261 447.682 8.41293C447.595 8.41769 447.482 8.40098 447.395 8.38884C447.207 8.36151 447.026 8.32957 446.846 8.30069C446.519 8.31048 446.185 8.31412 445.864 8.33312C445.617 8.34737 445.43 8.34617 445.249 8.30962C445.082 8.27611 444.901 8.23493 444.7 8.22453C444.5 8.21412 444.266 8.23757 444.046 8.24717C443.826 8.25677 443.572 8.2526 443.398 8.27748C443.225 8.30236 443.119 8.35632 443.006 8.39954C442.879 8.44738 442.706 8.46306 442.452 8.46811C442.218 8.47312 442.031 8.4673 441.857 8.42458C441.783 8.40627 441.683 8.39261 441.582 8.3805C441.489 8.36991 441.382 8.35319 441.295 8.35641C440.3 8.39347 439.312 8.43361 438.317 8.47221C437.822 8.49151 437.829 8.49148 436.799 8.40263C436.706 8.39511 436.592 8.38455 436.498 8.38779C435.944 8.40719 435.397 8.42965 434.842 8.45212C434.281 8.47461 434.288 8.47152 433.332 8.37639C433.158 8.35826 432.904 8.38328 432.697 8.38057C432.263 8.37364 432.047 8.24497 431.54 8.27043C431.106 8.29269 430.652 8.29809 430.218 8.32649C429.824 8.35176 429.596 8.29839 429.328 8.25737C429.235 8.24371 429.134 8.21315 429.054 8.21637C428.059 8.25189 427.071 8.29202 425.748 8.29892C425.421 8.29949 425.568 8.3315 425.782 8.34189C426.089 8.35825 426.189 8.32582 426.022 8.26465C425.901 8.22185 425.727 8.20062 425.587 8.21162C425.513 8.2179 425.42 8.24726 425.748 8.29892C426.096 8.3567 426.077 8.38899 426.137 8.40732C426.284 8.45162 426.492 8.46969 426.705 8.46318C427.039 8.45184 427.367 8.43592 427.7 8.42612C427.794 8.42288 427.908 8.43344 427.995 8.44558C428.731 8.53955 428.737 8.54569 429.519 8.50747C429.766 8.49628 429.946 8.49597 430.14 8.52482C430.408 8.5643 430.602 8.63155 431.01 8.60934C431.55 8.57921 432.105 8.56136 432.659 8.5435C432.746 8.54027 432.84 8.56776 432.94 8.57988C433.214 8.61627 433.416 8.68506 433.823 8.65516C434.136 8.63157 434.477 8.62482 434.811 8.61963C434.898 8.61794 435.032 8.6423 435.072 8.6622C435.153 8.6974 435.053 8.73906 434.826 8.76864C434.733 8.7811 434.606 8.77824 434.499 8.78303C434.058 8.8007 433.618 8.81989 433.177 8.83448C432.943 8.84257 432.723 8.86601 432.697 8.9229C432.677 8.96134 432.918 8.99471 433.145 8.99125C433.479 8.98606 433.813 8.97319 434.134 8.95266C434.701 8.91788 435.196 8.92623 435.658 9.02222C435.986 9.08925 435.966 9.06471 436.315 9.26383C436.403 9.31437 436.663 9.31853 436.891 9.31506C437.438 9.30643 437.692 9.32903 437.646 9.37674C437.587 9.43522 437.393 9.45399 437.146 9.4621C436.705 9.47515 436.265 9.4959 435.824 9.51357C435.717 9.51836 435.597 9.52778 435.497 9.52488C435.397 9.52198 435.303 9.50371 435.216 9.49003C435.028 9.46117 434.867 9.41689 434.667 9.40648C434.466 9.39608 434.233 9.41953 434.013 9.42913C433.792 9.43719 433.559 9.46065 433.358 9.45024C433.158 9.43983 432.99 9.39405 432.809 9.36671C432.722 9.35303 432.615 9.33169 432.528 9.33338C432.087 9.34644 431.647 9.36718 431.206 9.38331C430.665 9.40422 430.665 9.40422 430.009 9.31011C429.822 9.28278 429.628 9.28466 429.381 9.29738C428.847 9.32289 428.84 9.31828 427.864 9.23087C427.77 9.22181 427.656 9.21126 427.563 9.21603C426.568 9.2531 425.58 9.29322 424.591 9.3318C423.743 9.36554 423.743 9.36555 423.278 9.51999C422.932 9.63428 422.925 9.63429 423.266 9.68593C423.541 9.72847 423.789 9.79103 424.09 9.81355C424.37 9.83457 424.717 9.76484 425.025 9.83497C425.179 9.87004 425.38 9.9081 425.574 9.91391C425.881 9.92106 426.208 9.87593 426.503 9.94302C426.65 9.97656 426.871 10.0115 427.058 10.0127C427.386 10.0152 427.719 9.99007 428.047 9.97874C428.147 9.9755 428.26 9.9753 428.354 9.98282C428.454 9.99187 428.541 10.0102 428.628 10.0254C428.896 10.0771 429.184 10.1012 429.531 10.0745C430.098 10.0305 430.606 10.0511 431.048 10.1487C431.109 10.1624 431.256 10.1637 431.349 10.1574C431.589 10.1416 431.796 10.1397 431.977 10.1686C432.051 10.1807 432.158 10.202 432.145 10.2159C432.125 10.239 432.045 10.2698 431.958 10.2777C431.331 10.331 430.657 10.3383 430.009 10.3671C429.922 10.3703 429.815 10.3505 429.728 10.3369C429.541 10.3095 429.38 10.2637 429.179 10.2533C428.978 10.2429 428.745 10.2633 428.525 10.2714C428.304 10.2794 428.071 10.3029 427.87 10.294C427.67 10.2836 427.482 10.2455 427.321 10.212C427.134 10.1739 426.953 10.1696 426.706 10.1854C426.386 10.2059 426.052 10.2096 425.725 10.2209C425.544 10.192 425.363 10.1601 425.176 10.1327C425.089 10.1191 424.982 10.1024 424.888 10.1041C424.447 10.1171 424.007 10.1363 423.566 10.154C423.125 10.1716 423.125 10.1717 422.376 10.0777C422.289 10.0671 422.175 10.055 422.082 10.0582C421.527 10.0776 420.98 10.1016 420.426 10.121C420.212 10.1291 420.018 10.1079 419.844 10.0667C419.676 10.0255 419.476 10.0028 419.269 10.0109C418.387 10.0447 417.506 10.0769 416.624 10.1169C416.27 10.1329 415.97 10.1196 415.728 10.0647C415.447 10.0022 415.133 10.0181 414.806 10.0309C414.065 10.063 414.058 10.0614 413.583 9.98389C413.489 9.96869 413.395 9.93966 413.309 9.94135C412.541 9.96572 411.766 9.98858 411.005 10.0268C410.604 10.0474 410.39 9.99405 410.122 9.95457C410.028 9.9409 409.928 9.91189 409.848 9.9151C409.293 9.93296 408.739 9.94929 408.198 9.98096C407.657 10.0126 407.449 9.87011 407.041 9.87236C406.487 9.87486 405.939 9.91114 405.392 9.9336C404.951 9.95127 404.51 9.96893 404.07 9.98659C403.629 10.0043 403.188 10.0188 402.748 10.0396C402.514 10.0507 402.34 10.0372 402.146 9.99914C401.898 9.94887 401.604 9.90945 401.336 9.86383C400.928 9.79848 400.927 9.79847 400.433 9.81776C400.327 9.82256 400.213 9.82582 400.106 9.83061C399.298 9.86582 399.298 9.86275 398.268 9.76775C398.221 9.76323 398.101 9.78034 398.055 9.79271C397.915 9.8329 397.789 9.87613 397.662 9.91783C397.481 9.89356 397.261 9.88012 397.14 9.84499C396.798 9.74572 396.265 9.88338 395.917 9.78566C395.789 9.74901 395.568 9.71713 395.368 9.70826C395.161 9.6994 394.927 9.72132 394.714 9.73091C394.159 9.75491 394.159 9.75338 393.687 9.89094C393.447 9.95895 393.1 9.94726 392.786 9.96316C392.459 9.98063 392.145 9.9904 391.87 9.92789C391.622 9.87147 391.321 9.85817 390.968 9.87722C390.534 9.90102 390.086 9.91562 389.645 9.93021C389.552 9.93345 389.438 9.92597 389.344 9.91691C388.321 9.82805 388.321 9.82651 387.827 9.84734C387.607 9.85694 387.38 9.8604 387.166 9.8746C386.806 9.8998 386.531 9.86802 386.27 9.81931C386.183 9.8041 386.083 9.7751 385.996 9.77678C385.555 9.78523 385.121 9.79981 384.687 9.81439C384.353 9.82572 384.019 9.83245 383.699 9.85451C383.165 9.89078 382.903 9.79136 382.535 9.7459C381.987 9.76683 381.433 9.78162 380.885 9.81023C380.632 9.82296 380.465 9.81865 380.271 9.78211C380.023 9.73645 379.795 9.68461 379.394 9.70836C378.86 9.74001 378.299 9.75174 377.752 9.77113C377.384 9.72414 377.115 9.6278 376.588 9.66406C376.268 9.68612 375.927 9.69132 375.6 9.70418C375.159 9.72185 374.718 9.73799 374.278 9.75719C373.804 9.77645 373.81 9.77183 373.081 9.68245C372.659 9.62941 372.226 9.69008 371.798 9.70004C371.464 9.7083 371.298 9.77925 371.38 9.86976C371.461 9.96026 371.281 10.0312 370.974 10.0441C370.206 10.0746 369.432 10.1067 368.664 10.1341C368.57 10.1373 368.457 10.1268 368.37 10.1162C367.547 10.0208 367.547 10.0224 367.179 10.0368C366.632 10.0608 366.071 10.0741 365.53 10.1042C365.156 10.1248 364.882 10.0931 364.641 10.0412C364.453 10.0016 364.279 9.99271 364.039 10.0023C361.395 10.1099 358.75 10.2097 356.113 10.3203C355.719 10.3363 355.491 10.2922 355.224 10.2512C355.13 10.2375 355.043 10.2085 354.949 10.2086C354.729 10.209 354.508 10.2232 354.288 10.2328C353.3 10.2714 352.312 10.3177 351.317 10.3471C350.896 10.3601 350.783 10.431 350.603 10.4897C350.464 10.5344 350.304 10.5532 350.057 10.5597C349.816 10.5663 349.642 10.5589 349.455 10.5193C349.214 10.4675 348.939 10.4357 348.566 10.4578C348.132 10.4832 347.691 10.4947 347.243 10.5124C347.016 10.5205 346.843 10.5484 346.77 10.6038C346.757 10.6131 346.897 10.6359 346.978 10.6496C347.246 10.6952 347.5 10.7485 347.801 10.7803C348.109 10.812 348.442 10.7745 348.763 10.7648C348.876 10.7615 348.983 10.7521 349.09 10.7534C349.19 10.7548 349.311 10.7623 349.384 10.776C349.733 10.8445 350.1 10.8915 350.581 10.8492C350.995 10.8684 351.211 10.9956 351.738 10.9609C352.059 10.9403 352.393 10.9305 352.727 10.9223C352.813 10.9206 352.907 10.9481 353.001 10.9617C353.269 10.9997 353.483 11.0608 353.884 11.034C354.311 11.0056 354.765 11.0002 355.199 10.9779C355.439 10.9652 355.613 10.9756 355.801 11.0153C356.042 11.0655 356.316 11.1035 356.69 11.0782C357.01 11.0562 357.351 11.051 357.678 11.0366C358.106 11.0189 358.106 11.0205 358.868 11.1144C358.955 11.125 359.069 11.1371 359.163 11.1339C359.717 11.1145 360.264 11.0905 360.819 11.0711C361.032 11.063 361.24 11.0826 361.387 11.1269C361.448 11.1453 361.428 11.176 361.448 11.2021C360.346 11.2455 359.245 11.2827 358.15 11.3353C357.736 11.356 357.548 11.2934 357.273 11.2585C357.18 11.2464 357.079 11.2204 356.992 11.2237C356.218 11.2511 355.45 11.2801 354.682 11.3152C354.442 11.3264 354.261 11.3206 354.08 11.2763C353.618 11.1589 353.058 11.2244 352.537 11.2422C352.136 11.2551 352.01 11.303 352.058 11.4043C352.119 11.524 352.36 11.5605 352.974 11.5379C353.195 11.5299 353.415 11.5187 353.636 11.5122C353.849 11.5057 354.043 11.5253 354.217 11.5665C354.385 11.6077 354.586 11.6288 354.793 11.6223C355.233 11.6077 355.681 11.5931 356.108 11.5693C356.462 11.5503 356.756 11.5651 357.004 11.6216C357.279 11.6841 357.599 11.6697 357.92 11.6553C358.668 11.6233 358.674 11.6248 359.143 11.7008C359.236 11.716 359.33 11.745 359.417 11.7434C360.185 11.719 360.96 11.6977 361.714 11.6595C362.108 11.6404 362.336 11.6891 362.597 11.7286C362.691 11.7423 362.785 11.7728 362.871 11.7696C363.426 11.7518 363.98 11.7339 364.521 11.7038C364.774 11.6895 364.928 11.6984 365.136 11.7349C365.631 11.8247 365.645 11.8216 366.346 11.7912C366.559 11.7816 366.793 11.7643 366.993 11.7763C367.194 11.7882 367.355 11.8325 367.542 11.8598C367.629 11.872 367.736 11.8887 367.83 11.8854C368.271 11.8724 368.711 11.8532 369.152 11.8355C369.566 11.8179 369.566 11.8194 370.342 11.9133C370.657 11.9527 370.984 11.9184 371.298 11.9055C371.638 11.8911 371.945 11.8906 372.207 11.9501C372.468 12.0095 372.782 12.0059 373.116 11.993C373.43 11.9802 373.75 11.9458 374.071 11.9868C374.807 12.0807 374.807 12.0823 375.261 12.063C375.922 12.0358 376.576 12.0101 377.244 11.9858C377.331 11.9826 377.445 12.0009 377.532 12.013C377.719 12.0403 377.88 12.0861 378.081 12.0965C378.281 12.1085 378.515 12.0896 378.728 12.0801C379.416 12.0497 379.463 12.0388 379.925 12.1394C380.314 12.2217 380.793 12.1011 381.155 12.1957C381.363 12.2491 381.644 12.2916 382.031 12.2648C382.351 12.2428 382.685 12.236 383.019 12.2232C383.547 12.2023 383.547 12.2038 384.216 12.2948C384.303 12.307 384.417 12.3221 384.503 12.3189C384.944 12.3059 385.392 12.2943 385.819 12.2659C386.32 12.2328 386.641 12.2906 387.016 12.3468C387.31 12.3909 387.657 12.3534 387.971 12.3375C388.312 12.3215 388.619 12.3256 388.873 12.3851C389.141 12.4461 389.455 12.4378 389.789 12.425C390.103 12.4137 390.423 12.3778 390.745 12.4202C391.434 12.5143 391.434 12.5143 391.935 12.495C392.375 12.4773 392.816 12.4581 393.257 12.4451C393.344 12.4418 393.451 12.4616 393.538 12.4753C393.725 12.5026 393.886 12.5484 394.087 12.5588C394.287 12.5693 394.521 12.5489 394.741 12.5408C394.961 12.5327 395.195 12.5093 395.395 12.5182C395.596 12.527 395.784 12.5651 395.944 12.5986C396.132 12.6383 396.306 12.6426 396.559 12.6268C396.88 12.6062 397.214 12.601 397.541 12.5897C397.722 12.6186 397.909 12.6475 398.083 12.6794C398.264 12.7129 398.458 12.7095 398.705 12.6983C399.526 12.66 399.533 12.6646 400.222 12.7587C400.536 12.8011 400.863 12.7652 401.177 12.7539C401.511 12.7411 401.825 12.7344 402.086 12.7954C402.341 12.8533 402.655 12.8604 402.989 12.8414C403.202 12.8288 403.429 12.8207 403.65 12.8157C403.75 12.814 403.87 12.8199 403.944 12.8321C404.299 12.896 404.647 12.9538 405.134 12.9115C405.562 12.923 405.777 13.0486 406.291 13.0231C406.725 13.0009 407.179 12.9955 407.607 12.9671C408 12.9418 408.282 12.9843 408.483 13.0378C408.845 13.1324 409.351 13.0025 409.713 13.0955C409.92 13.149 410.188 13.1915 410.589 13.1678C411.029 13.1424 411.17 13.1744 411.298 13.271C411.372 13.3262 411.359 13.3708 411.226 13.414C411.093 13.4588 410.946 13.4514 410.732 13.401C410.484 13.3446 410.19 13.3344 409.836 13.3473C409.489 13.3602 409.274 13.2807 408.986 13.2504C408.699 13.2187 408.359 13.273 408.058 13.2321C407.348 13.1365 407.348 13.1365 406.867 13.1558C406.54 13.1687 406.2 13.1754 405.879 13.1975C405.499 13.2242 405.251 13.177 404.99 13.1345C404.896 13.1193 404.802 13.0902 404.722 13.0919C403.954 13.1163 403.179 13.1392 402.418 13.1789C402.018 13.1996 401.803 13.1446 401.536 13.1067C401.442 13.093 401.341 13.0655 401.261 13.0687C400.6 13.0914 399.946 13.1202 399.285 13.1475C399.158 13.1892 399.018 13.2293 398.899 13.2741C398.772 13.3204 398.599 13.3407 398.345 13.3396C397.924 13.3403 397.511 13.4056 397.089 13.3249C396.654 13.2427 396.62 13.2473 396.2 13.268C395.666 13.2951 395.098 13.2899 394.597 13.3507C394.511 13.3616 394.417 13.391 394.418 13.4125C394.411 13.4263 394.552 13.446 394.639 13.4582C394.933 13.4945 395.273 13.4402 395.567 13.4781C395.762 13.5023 395.922 13.5389 396.116 13.5647C396.197 13.5753 396.317 13.5736 396.424 13.5718C396.537 13.5701 396.644 13.5592 396.751 13.5605C396.851 13.5619 396.958 13.5709 397.039 13.5846C397.407 13.6423 397.795 13.6954 398.123 13.764C398.445 13.831 398.745 13.7844 399.065 13.7808C400.349 13.8861 400.349 13.8877 401.211 13.8524C401.424 13.8443 401.645 13.8347 401.865 13.8359C401.959 13.8357 402.046 13.8632 402.14 13.8784C402.407 13.924 402.662 13.9651 403.036 13.9398C403.356 13.9178 403.697 13.9126 404.024 13.8982C404.465 13.8805 404.465 13.8805 405.214 13.976C405.401 14.0002 405.602 13.9968 405.842 13.9841C406.049 13.973 406.263 13.9957 406.41 14.04C406.471 14.0583 406.451 14.0891 406.472 14.1152C405.81 14.1409 405.143 14.1589 404.502 14.1969C404.088 14.2207 403.9 14.155 403.626 14.1201C403.532 14.108 403.431 14.082 403.345 14.0853C402.69 14.1094 402.036 14.1367 401.382 14.1685C401.301 14.1717 401.202 14.2073 401.195 14.2288C401.182 14.2687 401.35 14.3069 401.59 14.3049C401.911 14.3028 402.225 14.2761 402.513 14.3386C402.754 14.3935 403.055 14.4176 403.408 14.3924C403.622 14.3782 403.849 14.3778 404.063 14.3651C404.63 14.3273 405.145 14.3341 405.573 14.4378C405.901 14.4649 406.222 14.4382 406.535 14.4238C406.769 14.4127 406.996 14.4015 407.163 14.4304C407.518 14.4913 407.866 14.5521 408.354 14.5098C408.882 14.5519 409.284 14.6418 409.726 14.7148C409.933 14.7498 410.094 14.7695 410.334 14.746C410.434 14.7366 410.554 14.7364 410.661 14.7316C410.882 14.7236 411.115 14.7001 411.316 14.709C411.516 14.7194 411.684 14.7636 411.864 14.791C411.951 14.8047 412.052 14.8275 412.139 14.8258C412.473 14.8176 412.8 14.8017 413.127 14.7888C413.454 14.7775 413.781 14.7662 414.109 14.7548C414.383 14.7943 414.664 14.8338 414.938 14.8732C415.379 14.8556 415.82 14.8379 416.254 14.8218C416.742 14.8025 416.741 14.804 417.444 14.8981C417.759 14.9405 418.092 14.9123 418.393 14.8918C418.893 14.8587 419.228 14.9165 419.583 14.9773C419.657 14.9895 419.79 14.9969 419.877 14.9906C420.224 14.9685 420.525 14.9849 420.779 15.0413C420.96 15.0809 421.141 15.099 421.361 15.091C422.129 15.0605 422.897 15.0284 423.665 15.0009C423.759 14.9977 423.866 15.0114 423.953 15.0235C424.635 15.116 424.642 15.1206 425.143 15.0952C425.59 15.0729 426.004 15.0629 426.359 15.1468C426.433 15.1651 426.547 15.1911 426.627 15.1894C427.174 15.1731 427.729 15.1552 428.27 15.1281C428.517 15.1154 428.69 15.1197 428.885 15.1547C429.132 15.1989 429.353 15.2522 429.761 15.2316C430.889 15.1728 430.896 15.182 432.233 15.2856C432.327 15.2932 432.454 15.2807 432.56 15.2743C432.787 15.2586 432.955 15.2798 433.155 15.3148C433.604 15.3939 433.617 15.3893 434.045 15.3716C434.372 15.3572 434.713 15.3535 435.033 15.3299C435.527 15.2953 435.855 15.3546 436.223 15.4108C436.518 15.4549 436.858 15.4174 437.172 15.4031C437.512 15.3871 437.82 15.3912 438.074 15.4491C438.248 15.4887 438.436 15.5099 438.656 15.5019C439.424 15.4729 440.192 15.4408 440.96 15.4118C441.053 15.4086 441.167 15.4207 441.254 15.4313C442.017 15.5252 442.017 15.5298 442.771 15.4932C443.012 15.482 443.212 15.4786 443.393 15.5105C443.567 15.541 443.754 15.5698 443.935 15.5987C444.262 15.5874 444.596 15.5837 444.917 15.5647C445.164 15.5505 445.337 15.5563 445.531 15.5883C445.786 15.6293 446.001 15.7011 446.401 15.6651C446.608 15.6478 446.848 15.652 447.055 15.6363C447.302 15.6159 447.469 15.6279 447.664 15.6675C447.905 15.7147 448.152 15.7634 448.54 15.7382C448.967 15.7098 449.421 15.7044 449.855 15.6821C450.095 15.6694 450.263 15.6814 450.457 15.721C450.698 15.7713 450.972 15.8031 451.346 15.7825C452.107 15.7428 452.114 15.7504 452.857 15.8459C453.044 15.8702 453.244 15.8668 453.485 15.8541C453.692 15.8429 453.906 15.8656 454.053 15.9099C454.194 15.9588 454.181 15.9896 454.195 16.0157ZM394.496 2.26318C394.275 2.27124 394.055 2.28084 393.733 2.14774C393.712 2.12473 393.725 2.09706 393.678 2.07717C393.571 2.03588 393.404 2.00698 393.203 2.00272C392.842 1.9972 392.409 2.05018 392.416 2.09011C392.423 2.1239 392.537 2.15288 392.758 2.18015C392.851 2.19075 392.925 2.20906 393.012 2.2212C393.266 2.25609 393.468 2.32489 393.835 2.28891C393.767 2.19378 393.801 2.24135 393.835 2.28891C393.802 2.34735 393.903 2.38866 394.143 2.40514C394.21 2.40963 394.31 2.40638 394.364 2.39707C394.57 2.36291 394.603 2.31677 394.448 2.19567C394.422 2.21569 394.442 2.25098 394.502 2.26009C394.563 2.26921 394.709 2.26128 394.783 2.2504C394.969 2.22088 395.063 2.18231 395.015 2.15013C394.989 2.13328 394.861 2.11199 394.781 2.11213C394.641 2.11237 394.514 2.14639 394.496 2.26318ZM448.732 19.9858C448.244 20.0159 447.683 20.0061 447.196 20.0668C447.109 20.0777 447.023 20.1055 447.016 20.1271C447.01 20.1409 447.144 20.1607 447.224 20.1713C447.405 20.1955 447.605 20.1875 447.839 20.1794C448.193 20.168 448.401 20.2383 448.675 20.2732C448.762 20.2838 448.876 20.2913 448.969 20.2881C449.51 20.2687 450.044 20.2478 450.585 20.2253C450.679 20.2206 450.779 20.2096 450.859 20.1957C451.125 20.1507 451.098 20.1215 450.837 20.0882C450.55 20.0518 450.322 19.9907 450.027 19.9621C449.606 19.9213 449.179 19.9774 448.732 19.9858ZM410.806 21.1732C410.479 21.1861 410.159 21.1989 409.831 21.2118C409.725 21.2166 409.611 21.2183 409.511 21.2246C409.304 21.2357 409.151 21.2683 409.051 21.3191C409.205 21.3588 409.393 21.3815 409.6 21.3766C409.927 21.3668 410.247 21.3462 410.575 21.3411C410.929 21.3343 411.137 21.4031 411.411 21.4379C411.498 21.4485 411.605 21.4499 411.705 21.4513C412.199 21.4565 412.499 21.3761 412.404 21.2641C412.336 21.1767 412.082 21.1249 411.775 21.1362C411.454 21.1475 411.127 21.1604 410.806 21.1732ZM450.989 17.7112C451.069 17.6849 451.155 17.6664 451.195 17.6432C451.314 17.5647 451.267 17.5064 451.046 17.4453C450.777 17.3705 450.451 17.4218 450.15 17.43C450.077 17.4316 449.997 17.464 449.957 17.4841C449.931 17.4979 449.931 17.5271 449.971 17.5348C450.299 17.5956 450.647 17.6519 450.989 17.7112ZM392.98 13.2736C392.659 13.2865 392.332 13.2963 392.011 13.3137C391.931 13.3185 391.858 13.3478 391.812 13.3678C391.725 13.4049 391.819 13.4554 392.093 13.4595C392.407 13.4651 392.734 13.4384 393.062 13.4256C393.476 13.4095 393.722 13.3522 393.568 13.3033C393.42 13.256 393.22 13.2471 392.98 13.2736ZM41.2813 10.6013C41.495 10.5932 41.7154 10.5867 41.929 10.5756C42.1293 10.5645 42.2827 10.5304 42.3823 10.4795C42.2148 10.4399 42.0274 10.4187 41.8204 10.4237C41.4931 10.4334 41.1726 10.4463 40.8522 10.4622C40.6519 10.4718 40.4586 10.5059 40.4125 10.5582C40.3662 10.5983 40.8139 10.6205 41.2813 10.6013ZM364.685 9.80303C364.772 9.8167 364.859 9.84421 364.946 9.84406C365.159 9.84369 365.38 9.83408 365.58 9.81837C365.667 9.81208 365.733 9.78431 365.773 9.76273C365.8 9.74886 365.793 9.7243 365.753 9.71207C365.558 9.63867 364.783 9.66613 364.657 9.75085C364.644 9.76623 364.678 9.78614 364.685 9.80303ZM343.505 1.42686C343.525 1.45141 343.532 1.47597 343.559 1.50051C343.613 1.5465 343.761 1.58005 343.975 1.60273C344.141 1.56403 344.228 1.52087 344.221 1.47479C344.214 1.45022 344.193 1.42566 344.166 1.40113C344.112 1.35513 343.965 1.3216 343.751 1.29893C343.584 1.33609 343.504 1.37924 343.505 1.42686ZM466.472 21.3439C466.412 21.3639 466.352 21.384 466.286 21.4026C466.467 21.4468 466.634 21.4603 466.761 21.4355C466.841 21.42 466.887 21.3969 466.947 21.3768C466.766 21.3326 466.605 21.3206 466.472 21.3439ZM462.319 21.56C462.406 21.5737 462.487 21.592 462.58 21.601C462.734 21.6161 462.874 21.5898 462.98 21.5343C462.893 21.5206 462.813 21.5023 462.719 21.4932C462.566 21.4781 462.426 21.5045 462.319 21.56ZM464.948 21.2743C464.902 21.3113 464.996 21.3418 465.243 21.3675C465.303 21.3474 465.383 21.3288 465.423 21.3073C465.489 21.2718 465.375 21.2398 465.134 21.2156C465.068 21.2341 465.008 21.2542 464.948 21.2743ZM450.825 19.6427C450.779 19.6796 450.873 19.7102 451.12 19.7359C451.18 19.7158 451.26 19.6972 451.3 19.6756C451.366 19.6402 451.252 19.6081 451.012 19.584C450.945 19.6025 450.885 19.6226 450.825 19.6427ZM431.48 8.80517C431.42 8.82525 431.36 8.84533 431.293 8.86388C431.474 8.90812 431.641 8.92165 431.768 8.89685C431.848 8.88135 431.894 8.85822 431.954 8.83814C431.773 8.79391 431.613 8.7819 431.48 8.80517ZM413.004 3.06987C413.165 3.08034 413.298 3.05861 413.411 3.00157C413.324 2.9879 413.244 2.9696 413.15 2.96054C412.996 2.94544 412.856 2.97181 412.75 3.02731C412.837 3.04252 412.924 3.05618 413.004 3.06987ZM403.226 2.72581C403.167 2.74589 403.107 2.76597 403.04 2.78452C403.221 2.82876 403.388 2.84229 403.515 2.81749C403.595 2.80199 403.641 2.77886 403.701 2.75878C403.52 2.71455 403.36 2.70407 403.226 2.72581ZM336.931 1.43674C336.872 1.45682 336.812 1.47689 336.745 1.49544C336.926 1.53968 337.093 1.55322 337.22 1.52841C337.3 1.51291 337.346 1.48979 337.406 1.46971C337.225 1.42547 337.065 1.415 336.931 1.43674ZM7.07024 14.5092C6.98322 14.4955 6.89628 14.4819 6.81593 14.4666C6.6227 14.5084 6.56306 14.547 6.67031 14.576C6.73734 14.5943 6.8376 14.6049 6.92461 14.6185C7.12452 14.5767 7.17082 14.5397 7.07024 14.5092Z" fill="#FFE492"/>
</svg>
